<svg width="24" height="24" viewBox="0 0 24 24" fill="none" xmlns="http://www.w3.org/2000/svg">
<path d="M1.20068 8.28841H23.2007M6.08957 0.955078V3.39952M18.3118 0.955078V3.39952M4.86735 11.9551H7.31179M10.9785 11.9551H13.4229M17.0896 11.9551H19.534M4.86735 15.6217H7.31179M10.9785 15.6217H13.4229M17.0896 15.6217H19.534M4.86735 19.2884H7.31179M10.9785 19.2884H13.4229M17.0896 19.2884H19.534M5.11179 22.9551H19.2896C20.6586 22.9551 21.3432 22.9551 21.866 22.6886C22.3259 22.4543 22.6999 22.0803 22.9342 21.6204C23.2007 21.0975 23.2007 20.413 23.2007 19.044V7.31063C23.2007 5.94161 23.2007 5.2571 22.9342 4.73421C22.6999 4.27425 22.3259 3.9003 21.866 3.66595C21.3432 3.39952 20.6586 3.39952 19.2896 3.39952H5.11179C3.74278 3.39952 3.05827 3.39952 2.53537 3.66595C2.07542 3.9003 1.70146 4.27425 1.46712 4.73421C1.20068 5.2571 1.20068 5.94161 1.20068 7.31063V19.044C1.20068 20.413 1.20068 21.0975 1.46712 21.6204C1.70146 22.0803 2.07542 22.4543 2.53537 22.6886C3.05827 22.9551 3.74277 22.9551 5.11179 22.9551Z" stroke="white" stroke-width="1.39683" stroke-linecap="round"/>
</svg>
