<svg width="50" height="50" viewBox="0 0 50 50" fill="none" xmlns="http://www.w3.org/2000/svg">
<path d="M1.73193 25.4551C1.73193 28.4714 2.32604 31.4581 3.48033 34.2448C4.63461 37.0315 6.32648 39.5636 8.45932 41.6964C10.5922 43.8293 13.1242 45.5211 15.9109 46.6754C18.6976 47.8297 21.6844 48.4238 24.7007 48.4238C27.717 48.4238 30.7037 47.8297 33.4904 46.6754C36.2771 45.5211 38.8092 43.8293 40.942 41.6964C43.0749 39.5636 44.7668 37.0315 45.921 34.2448C47.0753 31.4581 47.6694 28.4714 47.6694 25.4551C47.6694 22.4388 47.0753 19.452 45.921 16.6653C44.7668 13.8786 43.0749 11.3466 40.942 9.21372C38.8092 7.08087 36.2771 5.38901 33.4904 4.23472C30.7037 3.08043 27.717 2.48633 24.7007 2.48633C21.6844 2.48633 18.6976 3.08043 15.9109 4.23472C13.1242 5.38901 10.5922 7.08087 8.45932 9.21372C6.32648 11.3466 4.63461 13.8786 3.48033 16.6653C2.32604 19.452 1.73193 22.4388 1.73193 25.4551Z" fill="#FFE8CD"/>
<path d="M10.9194 18.4113C10.9194 17.1863 11.8382 16.2676 13.3694 16.2676H36.3382C37.5632 16.2676 38.7882 17.1863 38.7882 18.4113V32.1926C38.7882 33.4176 37.8694 34.3363 36.3382 34.3363H13.3694C12.1444 34.3363 10.9194 33.4176 10.9194 32.1926V18.4113Z" fill="#FF9D1C"/>
<path d="M10.9194 19.6362H38.4819V23.005H10.9194V19.6362Z" fill="#FFCA83"/>
<path d="M30.5193 30.0487C30.5193 29.4362 31.1318 28.8237 31.7443 28.8237H35.1131C35.7256 28.8237 36.3381 29.4362 36.3381 30.0487V31.2737C36.3381 31.8862 35.7256 32.4987 35.1131 32.4987H31.7443C31.1318 32.4987 30.5193 31.8862 30.5193 31.2737V30.0487Z" fill="white"/>
</svg>
