<svg width="22" height="22" viewBox="0 0 22 22" fill="none" xmlns="http://www.w3.org/2000/svg">
<g clip-path="url(#clip0_178_901)">
<path d="M5.53894 5.49028C5.41838 5.25133 5.22101 5.05396 4.98222 4.93356C3.45543 4.16345 1.96812 5.65067 2.73821 7.17726C2.8588 7.41623 3.05621 7.61368 3.29492 7.73423C4.82175 8.50417 6.30903 7.01688 5.53894 5.49028ZM6.28892 5.11191C7.42396 7.36199 5.16695 9.61902 2.91653 8.48416C2.51734 8.28259 2.18979 7.95497 1.98828 7.55562C0.853238 5.30555 3.11033 3.04856 5.36051 4.18354C5.75975 4.38487 6.08739 4.7125 6.28892 5.11191ZM13.3465 10.2181C13.4469 10.1601 13.4813 10.0317 13.4234 9.93123L12.1003 7.63962C12.0424 7.5393 11.914 7.50491 11.8135 7.56286L9.52189 8.88592C9.42157 8.94382 9.38717 9.07226 9.44513 9.17273L10.7682 11.4643C10.8261 11.5647 10.9545 11.599 11.055 11.5411L13.3465 10.2181V10.2181ZM11.4749 12.2686C10.9726 12.5584 10.3304 12.3864 10.0407 11.8842L8.71762 9.59262C8.42782 9.09037 8.5998 8.44816 9.10197 8.15841L11.3936 6.83535C11.8958 6.54555 12.538 6.71753 12.8278 7.21971L14.1509 9.51131C14.4406 10.0135 14.2687 10.6557 13.7665 10.9455L11.4749 12.2686V12.2686ZM18.1981 2.36389L17.9532 6.44439C17.9275 6.87138 17.4997 7.10138 17.1295 6.8875L14.0013 5.08144C13.6309 4.86748 13.6166 4.38235 13.9734 4.14677L17.3847 1.89428C17.7698 1.64006 18.2258 1.90293 18.1981 2.36387L18.1981 2.36389ZM17.3219 2.94239L14.8282 4.58894L17.1429 5.92525L17.3219 2.94239ZM8.34031 13.743H4.55935L2.81567 11.9993C2.21779 11.4014 1.24816 11.4014 0.650272 11.9993C0.0511157 12.5997 0.0515258 13.5683 0.649226 14.1659L2.84268 16.3594C3.136 16.6527 3.5292 16.8096 3.93624 16.8065C3.93872 16.8067 7.19056 16.8071 7.19056 16.8071V20.8202C7.19056 21.0521 7.3786 21.2402 7.61056 21.2402C7.84253 21.2402 8.03056 21.0521 8.03056 20.8202V16.3871C8.03056 16.1551 7.84253 15.9671 7.61056 15.9671H3.94861C3.74757 15.9689 3.56976 15.8986 3.43665 15.7654L1.24319 13.572C0.973147 13.3019 0.973147 12.8644 1.24311 12.5946C1.51523 12.3234 1.95221 12.3238 2.2217 12.5932L4.08839 14.4599C4.12739 14.4989 4.17369 14.5299 4.22465 14.551C4.27561 14.5721 4.33022 14.5829 4.38538 14.5829H8.32179C8.3277 14.5834 8.72481 14.5848 8.72481 14.5848C9.10773 14.5848 9.41822 14.8953 9.41822 15.2782V20.8201C9.41822 21.0521 9.60626 21.2401 9.83822 21.2401C10.0702 21.2401 10.2582 21.0521 10.2582 20.8201V15.2782C10.2582 14.4314 9.57164 13.7448 8.72481 13.7448H8.38172C8.37349 13.7442 8.3623 13.7438 8.34031 13.7429V13.743ZM12.656 13.7449C11.8091 13.7449 11.1225 14.4314 11.1225 15.2783V20.8202C11.1225 21.0521 11.3106 21.2402 11.5425 21.2402C11.7745 21.2402 11.9625 21.0521 11.9625 20.8202V15.2783C11.9625 14.8953 12.2731 14.5849 12.656 14.5849H13.0224L13.054 14.583H16.9954C17.1068 14.583 17.2136 14.5387 17.2924 14.46L19.1591 12.5933C19.4286 12.3238 19.8656 12.3234 20.1355 12.5922C20.4076 12.8645 20.4076 13.302 20.1376 13.572L17.9441 15.7655C17.811 15.8986 17.6332 15.9689 17.4469 15.9665C17.372 15.9712 17.372 15.9712 17.354 15.9755C17.364 15.9725 17.364 15.9725 17.4368 15.9671H13.7702C13.5383 15.9671 13.3502 16.1551 13.3502 16.3871V20.8202C13.3502 21.0522 13.5383 21.2402 13.7702 21.2402C14.0022 21.2402 14.1902 21.0522 14.1902 20.8202V16.8071H17.4368C17.8482 16.811 18.2435 16.654 18.5381 16.3594L20.7316 14.166C21.3293 13.5683 21.3297 12.5997 20.7328 12.0018C20.1327 11.4015 19.163 11.4015 18.5651 11.9993L16.8215 13.743H13.0405C13.0158 13.744 13.0047 13.7444 12.9961 13.7451L12.656 13.7449L12.656 13.7449Z" fill="#BB0CA7"/>
</g>
<defs>
<clipPath id="clip0_178_901">
<rect width="21" height="21" fill="white" transform="translate(0.200684 0.955078)"/>
</clipPath>
</defs>
</svg>
