<svg width="37" height="37" viewBox="0 0 37 37" fill="none" xmlns="http://www.w3.org/2000/svg">
<circle cx="18.2007" cy="18.9551" r="18" fill="#FFEABB" fill-opacity="0.6"/>
<path d="M18.2007 13.6644C19.2636 13.6779 20.2987 14.0055 21.1758 14.6061C22.0528 15.2067 22.7326 16.0534 23.1294 17.0395C23.5262 18.0256 23.6224 19.1071 23.4058 20.1478C23.1893 21.1885 22.6696 22.1418 21.9123 22.8878C21.155 23.6337 20.1939 24.1389 19.1501 24.3397C18.1063 24.5405 17.0263 24.428 16.0463 24.0163C15.0663 23.6046 14.23 22.9122 13.6427 22.0261C13.0555 21.1401 12.7435 20.1001 12.7461 19.0372C12.7442 18.3241 12.8846 17.6179 13.159 16.9598C13.4335 16.3017 13.8365 15.705 14.3445 15.2047C14.8525 14.7043 15.4552 14.3104 16.1173 14.0459C16.7795 13.7814 17.4878 13.6517 18.2007 13.6644Z" fill="#F7BF75"/>
<path d="M22.7417 26.6053L24.3644 29.4008C26.1773 28.3271 27.6782 26.7986 28.7187 24.9665C29.7591 23.1343 30.3029 21.0622 30.2962 18.9553H26.9826V19.0371C26.9835 20.5563 26.594 22.0503 25.8514 23.3755C25.1087 24.7008 24.0379 25.813 22.7417 26.6053Z" fill="#F7BF75"/>
<path d="M18.2006 6.83252C16.3384 6.83844 14.5025 7.27333 12.8354 8.10346C11.1684 8.93359 9.715 10.1366 8.58805 11.6192C7.4611 13.1018 6.69088 14.8242 6.33715 16.6526C5.98342 18.481 6.05569 20.3663 6.54835 22.1622C7.04102 23.9582 7.94083 25.6165 9.17798 27.0085C10.4151 28.4004 11.9563 29.4887 13.682 30.1888C15.4077 30.8888 17.2715 31.1819 19.1288 31.0452C20.9861 30.9086 22.7869 30.3458 24.3916 29.4007L22.7688 26.6052C21.6004 27.3135 20.284 27.7415 18.9225 27.856C17.561 27.9704 16.1916 27.768 14.9214 27.2647C13.6512 26.7615 12.5148 25.9709 11.6011 24.9551C10.6875 23.9392 10.0215 22.7256 9.65525 21.4093C9.28901 20.0931 9.2325 18.7099 9.49015 17.3681C9.7478 16.0264 10.3126 14.7625 11.1403 13.6755C11.968 12.5885 13.0362 11.7079 14.2611 11.1027C15.486 10.4975 16.8344 10.1841 18.2006 10.1871V6.83252Z" fill="#FFDD92"/>
<path d="M18.2007 6.83252V10.1871C20.5219 10.2049 22.7432 11.1339 24.3859 12.7741C26.0286 14.4142 26.9611 16.634 26.9825 18.9552H30.2961C30.2961 15.7448 29.0227 12.6655 26.7551 10.3928C24.4876 8.12014 21.4111 6.83974 18.2007 6.83252Z" fill="#F1734D"/>
<path d="M18.2006 14.8645C19.0433 14.8618 19.8677 15.1094 20.5695 15.5759C21.2712 16.0423 21.8186 16.7066 22.1423 17.4846C22.466 18.2626 22.5514 19.1192 22.3877 19.9457C22.224 20.7723 21.8185 21.5316 21.2227 22.1275C20.6269 22.7233 19.8675 23.1288 19.0409 23.2925C18.2144 23.4562 17.3578 23.3708 16.5798 23.0471C15.8019 22.7234 15.1375 22.176 14.6711 21.4742C14.2046 20.7725 13.957 19.9481 13.9597 19.1054C13.9597 17.9807 14.4065 16.902 15.2019 16.1067C15.9972 15.3113 17.0759 14.8645 18.2006 14.8645Z" fill="#F1734D"/>
<path fill-rule="evenodd" clip-rule="evenodd" d="M17.4642 16.4735V16.3371C17.4642 16.1563 17.536 15.9828 17.6639 15.855C17.7917 15.7271 17.9652 15.6553 18.146 15.6553C18.3268 15.6553 18.5002 15.7271 18.6281 15.855C18.756 15.9828 18.8278 16.1563 18.8278 16.3371V16.4735C19.012 16.5615 19.182 16.6764 19.3324 16.8144C19.4796 16.9705 19.5994 17.1502 19.6869 17.3462C19.7227 17.4286 19.742 17.5172 19.7435 17.607C19.7451 17.6968 19.7289 17.786 19.696 17.8696C19.6631 17.9532 19.614 18.0295 19.5516 18.0941C19.4892 18.1587 19.4147 18.2104 19.3324 18.2462C19.25 18.282 19.1614 18.3012 19.0715 18.3028C18.9817 18.3044 18.8925 18.2882 18.8089 18.2553C18.7254 18.2224 18.6491 18.1733 18.5845 18.1109C18.5199 18.0485 18.4682 17.974 18.4324 17.8916C18.4178 17.8508 18.3945 17.8136 18.3642 17.7825C18.3046 17.7283 18.2265 17.699 18.146 17.7007C18.1003 17.691 18.053 17.6917 18.0076 17.7026C17.9622 17.7135 17.9198 17.7345 17.8835 17.7639C17.8472 17.7933 17.8179 17.8304 17.7978 17.8726C17.7777 17.9147 17.7673 17.9608 17.7673 18.0075C17.7673 18.0543 17.7777 18.1004 17.7978 18.1425C17.8179 18.1847 17.8472 18.2218 17.8835 18.2512C17.9198 18.2806 17.9622 18.3016 18.0076 18.3125C18.053 18.3234 18.1003 18.324 18.146 18.3144C18.5282 18.317 18.8981 18.4501 19.1944 18.6916C19.4907 18.9331 19.6956 19.2687 19.7751 19.6425C19.8547 20.0164 19.8041 20.4063 19.6318 20.7475C19.4596 21.0888 19.1759 21.3609 18.8278 21.5189V21.6825C18.8278 21.8634 18.756 22.0368 18.6281 22.1647C18.5002 22.2925 18.3268 22.3644 18.146 22.3644C17.9652 22.3644 17.7917 22.2925 17.6639 22.1647C17.536 22.0368 17.4642 21.8634 17.4642 21.6825V21.5325C17.2735 21.4564 17.1014 21.3401 16.9596 21.1916C16.8067 21.0373 16.6821 20.8573 16.5914 20.6598C16.5209 20.4916 16.5201 20.3023 16.5891 20.1336C16.6582 19.9648 16.7915 19.8303 16.9596 19.7598C17.1278 19.6893 17.3171 19.6885 17.4859 19.7575C17.6547 19.8266 17.7891 19.9598 17.8596 20.128C17.8526 20.1594 17.8526 20.192 17.8596 20.2235C17.9013 20.2704 17.9556 20.3043 18.0161 20.3213C18.0765 20.3382 18.1405 20.3374 18.2005 20.3189C18.2837 20.3189 18.3635 20.2859 18.4223 20.227C18.4811 20.1682 18.5142 20.0885 18.5142 20.0053C18.5142 19.9221 18.4811 19.8423 18.4223 19.7835C18.3635 19.7247 18.2837 19.6916 18.2005 19.6916C17.8183 19.689 17.4484 19.5559 17.1521 19.3144C16.8558 19.0729 16.6509 18.7373 16.5714 18.3635C16.4918 17.9896 16.5424 17.5997 16.7147 17.2585C16.887 16.9172 17.1706 16.6451 17.5187 16.4871L17.4642 16.4735Z" fill="#FFEABB"/>
</svg>
