<svg width="34" height="34" viewBox="0 0 34 34" fill="none" xmlns="http://www.w3.org/2000/svg">
<g clip-path="url(#clip0_178_805)">
<path d="M16.7007 33.9551C25.8134 33.9551 33.2007 26.5678 33.2007 17.4551C33.2007 8.34238 25.8134 0.955078 16.7007 0.955078C7.58798 0.955078 0.200684 8.34238 0.200684 17.4551C0.200684 26.5678 7.58798 33.9551 16.7007 33.9551Z" fill="#E4E7ED"/>
<path d="M23.2445 8.46808C20.183 5.19444 23.5847 -0.233675 28.9323 3.59233C28.9323 3.59233 27.4472 3.4058 26.8401 4.14463C26.0061 5.1615 27.1802 8.0218 23.2445 8.46808Z" fill="#5FDC68"/>
<path d="M27.7104 2.85352C28.1054 3.04739 28.5151 3.28877 28.9357 3.59241C28.9357 3.59241 27.4507 3.40588 26.8435 4.14471C26.6131 4.42637 26.5363 4.84331 26.4631 5.31517C26.379 4.86162 26.4741 3.12422 27.7104 2.85719V2.85352Z" fill="#56BF5D"/>
<path d="M26.5142 3.01073C23.5221 2.68885 22.8711 6.7599 22.8345 12.8829L23.16 12.978C23.1966 10.9297 23.0539 3.00705 26.5142 3.00705V3.01073Z" fill="#6C7678"/>
<path d="M22.0483 9.53235C23.0652 6.75977 19.6013 4.3384 17.3408 8.03633C17.3408 8.03633 18.1931 7.53888 18.7527 7.8315C19.5209 8.23388 19.5428 10.2749 22.0483 9.52868V9.53235H22.0483Z" fill="#5FDC68"/>
<path d="M17.8968 7.27184C17.7066 7.4913 17.5201 7.7437 17.3445 8.03632C17.3445 8.03632 18.1967 7.53887 18.7564 7.83149C18.9686 7.94125 19.1222 8.17534 19.2868 8.44231C19.2209 8.14602 18.7161 7.11451 17.8968 7.27184Z" fill="#56BF5D"/>
<path d="M18.6611 7.05974C20.4937 5.98802 22.3408 9.33848 22.9663 10.6443L22.9224 11.2223C22.0884 9.46655 20.1644 6.35011 18.6611 7.05974Z" fill="#6C7678"/>
<path d="M22.052 10.8784H24.1405V12.9926H22.052V10.8784Z" fill="white"/>
<path d="M3.88745 20.9884C12.0807 20.9884 19.1109 25.9519 22.1432 33.0332C20.4386 33.6294 18.6098 33.9513 16.7005 33.9513C8.89488 33.9513 2.35489 28.5305 0.639404 21.2516C1.6965 21.0798 2.77918 20.9846 3.88378 20.9846L3.88745 20.9884Z" fill="#75BD80"/>
<path d="M18.7052 21.1714C23.5334 21.1714 28.0873 21.9871 32.0889 23.4245C29.6967 29.5878 23.709 33.9552 16.7008 33.9552C10.2449 33.9552 4.65594 30.2462 1.94556 24.8474C6.67132 22.5321 12.4579 21.1677 18.7052 21.1677V21.1714Z" fill="#83CF8F"/>
<path d="M16.7007 27.6638C22.6499 27.6638 27.4727 27.2363 27.4727 26.7091C27.4727 26.1818 22.6499 25.7544 16.7007 25.7544C10.7515 25.7544 5.92871 26.1818 5.92871 26.7091C5.92871 27.2363 10.7515 27.6638 16.7007 27.6638Z" fill="#75BD80"/>
<path d="M8.25122 14.5178L16.8908 9.18115L25.1536 14.291V27.0016H8.25122V14.5178Z" fill="white"/>
<path d="M23.9539 10.8784H24.1404V12.9926H23.9539V10.8784Z" fill="#DCE3DB"/>
<path d="M16.7008 17.0748C17.8644 17.0748 18.8077 16.1315 18.8077 14.9679C18.8077 13.8044 17.8644 12.8611 16.7008 12.8611C15.5373 12.8611 14.594 13.8044 14.594 14.9679C14.594 16.1315 15.5373 17.0748 16.7008 17.0748Z" fill="#EEF3F7"/>
<path d="M25.1536 14.3972V15.7323L16.8908 10.6298L8.25122 15.9664V14.6313L16.5909 9.4776L16.8908 9.29468L17.1871 9.4776L25.1536 14.3972Z" fill="#EEF3F7"/>
<path d="M5.90674 15.297L16.591 8.69848L16.8909 8.51562L17.1872 8.69848L27.8714 15.297L27.2752 16.2663L16.8909 9.85064L6.5066 16.2663L5.90674 15.297Z" fill="#FF7069"/>
<path d="M13.8989 18.0732H19.5026V26.5299H13.8989V18.0732Z" fill="#E4E7ED"/>
<path d="M8.66096 6.10525C9.67416 6.10525 10.4972 6.91362 10.5264 7.91947C10.5411 7.91947 10.5557 7.91947 10.5703 7.91947C11.1117 7.91947 11.5469 8.3584 11.5469 8.89607C11.5469 9.43741 11.108 9.87266 10.5703 9.87266C10.2411 9.87266 9.95215 9.71172 9.77658 9.463C9.46566 9.69709 9.07797 9.83244 8.66096 9.83244C8.3976 9.83244 8.14888 9.77759 7.92207 9.67885C7.6843 9.97514 7.31853 10.1653 6.90887 10.1653C6.19563 10.1653 5.61768 9.58739 5.61768 8.87415C5.61768 8.1865 6.15534 7.62318 6.83204 7.58296C7.00761 6.73438 7.75746 6.0979 8.65722 6.0979L8.66096 6.10525Z" fill="#FEFEFE"/>
<path d="M9.87158 18.0732H12.5747V20.319H9.87158V18.0732Z" fill="#EEF3F7"/>
<path d="M10.0068 18.2048H12.4392V20.1837H10.0068V18.2048Z" fill="#83CF8F"/>
<path d="M9.87158 20.6702H12.5747V22.916H9.87158V20.6702Z" fill="#EEF3F7"/>
<path d="M10.0068 20.8018H12.4392V22.7843H10.0068V20.8018Z" fill="#83CF8F"/>
<path d="M20.8264 18.0732H23.5331V20.319H20.8264V18.0732Z" fill="#EEF3F7"/>
<path d="M20.9619 18.2048H23.3943V20.1837H20.9619V18.2048Z" fill="#83CF8F"/>
<path d="M20.8264 20.6702H23.5331V22.916H20.8264V20.6702Z" fill="#EEF3F7"/>
<path d="M20.9619 20.8018H23.3943V22.7843H20.9619V20.8018Z" fill="#83CF8F"/>
<path d="M16.7007 16.7894C17.7068 16.7894 18.5223 15.9738 18.5223 14.9678C18.5223 13.9618 17.7068 13.1462 16.7007 13.1462C15.6947 13.1462 14.8792 13.9618 14.8792 14.9678C14.8792 15.9738 15.6947 16.7894 16.7007 16.7894Z" fill="#5DA668"/>
<path d="M18.0172 16.2298C17.6844 16.5736 17.2198 16.7894 16.7041 16.7894C15.6983 16.7894 14.8826 15.9738 14.8826 14.9678C14.8826 14.5765 15.007 14.218 15.2154 13.9217C15.5482 13.5778 16.0128 13.3621 16.5285 13.3621C17.5344 13.3621 18.3501 14.1777 18.3501 15.1836C18.3501 15.575 18.2258 15.9335 18.0172 16.2298Z" fill="#83CF8F"/>
<path d="M16.5068 13.0183H16.8946V16.9028H16.5068V13.0183Z" fill="#EEF3F7"/>
<path d="M14.762 15.1543V14.7666H18.6428V15.1543H14.762Z" fill="#EEF3F7"/>
</g>
<defs>
<clipPath id="clip0_178_805">
<rect width="33" height="33" fill="white" transform="translate(0.200684 0.955078)"/>
</clipPath>
</defs>
</svg>
