<svg width="38" height="38" viewBox="0 0 38 38" fill="none" xmlns="http://www.w3.org/2000/svg">
<path d="M1.35693 19.4551C1.35693 21.7327 1.80554 23.988 2.67715 26.0922C3.54875 28.1965 4.82628 30.1084 6.4368 31.719C8.04732 33.3295 9.95928 34.607 12.0635 35.4786C14.1678 36.3502 16.4231 36.7988 18.7007 36.7988C20.9783 36.7988 23.2336 36.3502 25.3378 35.4786C27.4421 34.607 29.3541 33.3295 30.9646 31.719C32.5751 30.1084 33.8526 28.1965 34.7242 26.0922C35.5958 23.988 36.0444 21.7327 36.0444 19.4551C36.0444 17.1775 35.5958 14.9222 34.7242 12.8179C33.8526 10.7137 32.5751 8.80171 30.9646 7.1912C29.3541 5.58068 27.4421 4.30315 25.3378 3.43154C23.2336 2.55994 20.9783 2.11133 18.7007 2.11133C16.4231 2.11133 14.1678 2.55994 12.0635 3.43154C9.95928 4.30315 8.04732 5.58068 6.4368 7.1912C4.82628 8.80171 3.54875 10.7137 2.67715 12.8179C1.80554 14.9222 1.35693 17.1775 1.35693 19.4551Z" fill="#E5F1FF"/>
<path d="M11.0696 16.6801C11.0696 17.6822 11.267 18.6746 11.6505 19.6004C12.034 20.5263 12.5961 21.3676 13.3047 22.0762C14.0133 22.7848 14.8546 23.3469 15.7805 23.7304C16.7063 24.1139 17.6987 24.3113 18.7008 24.3113C19.703 24.3113 20.6953 24.1139 21.6212 23.7304C22.5471 23.3469 23.3883 22.7848 24.0969 22.0762C24.8056 21.3676 25.3677 20.5263 25.7512 19.6004C26.1347 18.6746 26.3321 17.6822 26.3321 16.6801C26.3321 14.6561 25.5281 12.7151 24.0969 11.284C22.6658 9.85283 20.7248 9.04883 18.7008 9.04883C16.6769 9.04883 14.7359 9.85283 13.3047 11.284C11.8736 12.7151 11.0696 14.6561 11.0696 16.6801Z" fill="#A9D2FF"/>
<path d="M18.7008 16.6801C18.4695 16.6801 18.4695 16.6801 18.2383 16.4488L15.9258 13.2113C15.6945 12.9801 15.9258 12.7488 15.9258 12.5176C16.157 12.2863 16.3883 12.5176 16.6195 12.5176L18.932 15.7551C19.1633 15.9863 18.932 16.2176 18.932 16.4488C18.932 16.6801 18.7008 16.6801 18.7008 16.6801Z" fill="white"/>
<path d="M18.7005 21.0739C18.4693 21.0739 18.238 20.8426 18.238 20.6114V15.9864L20.7818 12.7489C20.7818 12.5176 21.2443 12.5176 21.2443 12.7489C21.4755 12.9801 21.4755 13.2114 21.2443 13.4426L18.9318 16.4489V20.6114C19.163 20.8426 18.9318 21.0739 18.7005 21.0739Z" fill="white"/>
<path d="M20.3194 16.6801H17.0819C16.8506 16.6801 16.6194 16.4489 16.6194 16.2176C16.6194 15.9864 16.8506 15.7551 17.0819 15.7551H20.3194C20.5506 15.7551 20.7819 15.9864 20.7819 16.2176C20.7819 16.4489 20.5506 16.6801 20.3194 16.6801ZM20.3194 18.2989H17.0819C16.8506 18.2989 16.6194 18.0676 16.6194 17.8364C16.6194 17.6051 16.8506 17.3739 17.0819 17.3739H20.3194C20.5506 17.3739 20.7819 17.6051 20.7819 17.8364C20.7819 18.0676 20.5506 18.2989 20.3194 18.2989Z" fill="white"/>
<path d="M28.8757 22.4614C28.4132 21.5364 27.2569 21.5364 26.5632 21.7677L24.4819 22.2302C24.4819 22.9239 24.2507 23.3864 23.5569 24.0802C22.1694 25.2364 19.6257 25.4677 17.7757 25.4677H15.6944C15.2319 25.4677 15.0007 25.0052 15.2319 24.7739C15.2319 24.3114 15.6944 24.0802 15.9257 24.3114C17.3132 24.5427 21.2444 24.5427 22.6319 23.3864C23.0944 22.6927 23.3257 22.4614 23.3257 21.9989C22.8632 21.5364 22.1694 21.3052 21.7069 21.3052H8.75693C8.52568 21.3052 8.29443 21.5364 8.29443 21.7677V26.6239C8.29443 26.8552 8.52568 27.0864 8.75693 27.0864C12.2257 28.2427 16.6194 29.6302 19.1632 29.6302H20.0882C21.7069 29.3989 27.2569 25.6989 28.4132 24.7739C28.8757 24.3114 29.1069 23.3864 28.8757 22.4614Z" fill="#72AEFD"/>
</svg>
