<svg width="34" height="34" viewBox="0 0 34 34" fill="none" xmlns="http://www.w3.org/2000/svg">
<g clip-path="url(#clip0_178_869)">
<path d="M16.7007 33.4551C25.8134 33.4551 33.2007 26.0678 33.2007 16.9551C33.2007 7.84238 25.8134 0.455078 16.7007 0.455078C7.58798 0.455078 0.200684 7.84238 0.200684 16.9551C0.200684 26.0678 7.58798 33.4551 16.7007 33.4551Z" fill="#83CF8F"/>
<path d="M17.0616 7.96394C16.8102 8.20242 16.7973 8.60847 17.0487 8.85984L26.3428 18.502C26.5813 18.7534 26.9873 18.7663 27.2387 18.5149C27.4901 18.2764 27.503 17.8704 27.2516 17.619L17.9574 7.97683C17.719 7.72547 17.3129 7.71258 17.0551 7.96394H17.0616Z" fill="white"/>
<path d="M27.6963 18.6565C24.029 18.6565 20.368 18.6565 16.7006 18.6565C13.0397 18.6565 9.37876 18.6565 5.71138 18.6565C5.08618 18.6565 4.70591 19.1592 4.84126 19.778C5.31821 21.8727 5.79516 23.9674 6.27212 26.0557C6.74907 28.1504 7.22602 30.2452 7.70298 32.3334C7.84477 32.9522 8.32817 33.4549 8.7729 33.4549C11.4155 33.4549 14.0516 33.4549 16.6942 33.4549C19.3432 33.4549 21.9858 33.4549 24.6219 33.4549C25.0666 33.4549 25.5565 32.9522 25.6918 32.3334C26.1688 30.2387 26.6458 28.144 27.1227 26.0557C27.5997 23.961 28.0766 21.8727 28.5536 19.778C28.7018 19.1657 28.3215 18.6565 27.6963 18.6565ZM10.0426 31.27C10.0168 31.27 10.004 31.27 9.99106 31.27C9.78481 31.27 9.57212 31.0444 9.527 30.7801C9.24341 29.1624 8.95981 27.5381 8.66977 25.9204C8.38618 24.3026 8.10259 22.6784 7.81255 21.0542C7.76743 20.7834 7.94145 20.5643 8.20571 20.5643C8.22505 20.5643 8.24438 20.5643 8.27016 20.5643C8.53442 20.5643 8.77934 20.7899 8.81802 21.0542C9.06938 22.6784 9.3272 24.2961 9.57856 25.9204C9.82993 27.5381 10.0813 29.1624 10.3327 30.7801C10.3713 31.0444 10.2424 31.27 10.0426 31.27ZM12.7497 31.1282C12.7239 31.1282 12.711 31.1282 12.6981 31.1282C12.4918 31.1282 12.2985 30.9026 12.2663 30.6383C12.0922 29.0206 11.9182 27.3963 11.7442 25.7786C11.5702 24.1608 11.3897 22.5366 11.2221 20.9124C11.1899 20.6417 11.3833 20.4225 11.6475 20.4225C11.6733 20.4225 11.6926 20.4225 11.7184 20.4225C11.9827 20.4225 12.2083 20.6481 12.234 20.9124C12.3823 22.5366 12.5176 24.1543 12.6659 25.7786C12.8077 27.3963 12.9495 29.0206 13.0913 30.6383C13.1041 30.909 12.9495 31.1282 12.7497 31.1282ZM25.9045 21.1186C25.6532 22.5108 25.3954 23.903 25.144 25.3016C25.4469 25.9719 25.6145 26.7131 25.6145 27.4866C25.6145 30.4063 23.2491 32.7653 20.3358 32.7653C18.4473 32.7653 16.7844 31.7727 15.8563 30.2774L15.8627 30.6319C15.8692 30.9026 15.7016 31.1217 15.4954 31.1217C15.4696 31.1217 15.4567 31.1217 15.4438 31.1217C15.2375 31.1217 15.0571 30.8961 15.0442 30.6319C14.9733 29.0141 14.9153 27.3899 14.8508 25.7721C14.7864 24.1543 14.7219 22.5301 14.6575 20.9059C14.651 20.6352 14.8508 20.4161 15.1086 20.4161C15.1344 20.4161 15.1538 20.4161 15.1795 20.4161C15.4438 20.4161 15.6629 20.6416 15.6629 20.9059C15.6952 22.2208 15.7145 23.5485 15.7467 24.8633C16.2688 23.9417 17.068 23.194 18.0348 22.7235C18.0477 22.1176 18.067 21.5053 18.0799 20.8995C18.0864 20.6288 18.312 20.4096 18.5698 20.4096C18.5956 20.4096 18.6149 20.4096 18.6407 20.4096C18.9049 20.4096 19.1047 20.6352 19.0918 20.8995C19.0661 21.3829 19.0467 21.8727 19.0209 22.3561C19.4463 22.2465 19.8846 22.195 20.3358 22.195C20.6903 22.195 21.0383 22.2336 21.3735 22.2981C21.4186 21.834 21.4573 21.3635 21.5024 20.9059C21.5282 20.6352 21.7666 20.4161 22.0245 20.4161C22.0502 20.4161 22.0696 20.4161 22.0954 20.4161C22.3596 20.4161 22.5465 20.6416 22.5208 20.9059C22.4563 21.4667 22.3918 22.0209 22.3274 22.5817C23.1459 22.9104 23.8614 23.4454 24.4157 24.1221C24.5768 23.1231 24.7379 22.1176 24.8991 21.1186C24.9442 20.8479 25.1891 20.6288 25.4534 20.6288C25.4727 20.6288 25.492 20.6288 25.5178 20.6288C25.7756 20.6288 25.9561 20.8479 25.9045 21.1186Z" fill="#E4E7ED"/>
<path d="M16.5911 7.96396C16.8425 8.20244 16.8554 8.60849 16.604 8.85986L7.31633 18.4956C7.07786 18.747 6.6718 18.7599 6.42044 18.5085C6.16907 18.27 6.15618 17.864 6.40755 17.6126L15.7017 7.97041C15.9402 7.72549 16.3462 7.7126 16.5911 7.96396Z" fill="white"/>
<path d="M4.74458 19.4623L28.5922 19.3914L28.0637 21.8921H25.7692L25.911 21.1123C25.9561 20.8416 25.7885 20.6224 25.5243 20.6224C25.4985 20.6224 25.4791 20.6224 25.4534 20.6224C25.1891 20.6224 24.9442 20.848 24.8991 21.1123L24.7766 21.8921H22.4047L22.5208 20.906C22.553 20.6353 22.3661 20.4162 22.0954 20.4162C22.0696 20.4162 22.0502 20.4162 22.0245 20.4162C21.7602 20.4162 21.5217 20.6417 21.5024 20.906C21.4702 21.2347 21.4379 21.5699 21.4122 21.8921H19.0403L19.0854 20.906C19.0983 20.6353 18.892 20.4162 18.6342 20.4162C18.6084 20.4162 18.5891 20.4162 18.5633 20.4162C18.2991 20.4162 18.0799 20.6417 18.0735 20.906L18.0477 21.8921H15.6694L15.6436 20.906C15.6372 20.6353 15.418 20.4162 15.1602 20.4162C15.1344 20.4162 15.1151 20.4162 15.0893 20.4162C14.825 20.4162 14.6188 20.6417 14.6381 20.906L14.6768 21.8921H12.3049L12.2211 20.906C12.1954 20.6353 11.9569 20.4162 11.7055 20.4162C11.6797 20.4162 11.6604 20.4162 11.6346 20.4162C11.3704 20.4162 11.1834 20.6417 11.2092 20.906L11.3188 21.8921H8.94692L8.81802 21.0478C8.77935 20.7771 8.53442 20.558 8.27017 20.558C8.24438 20.558 8.22505 20.558 8.19927 20.558C7.93501 20.558 7.76099 20.7835 7.8061 21.0478L7.95435 21.8921H5.31821L4.73169 19.4623H4.74458Z" fill="#C6CBD6"/>
<path d="M4.11934 17.387H29.2818C29.9973 17.387 30.5838 17.9735 30.5838 18.6889C30.5838 19.4043 29.9973 19.9909 29.2818 19.9909H4.11934C3.40391 19.9909 2.81738 19.4043 2.81738 18.6889C2.81738 17.9735 3.40391 17.387 4.11934 17.387Z" fill="#ECF0F1"/>
<path d="M20.3359 22.2014C23.3072 22.2014 25.7178 24.612 25.7178 27.5833C25.7178 30.5545 23.3072 32.9651 20.3359 32.9651C17.3646 32.9651 14.9541 30.5545 14.9541 27.5833C14.9541 24.612 17.3646 22.2014 20.3359 22.2014Z" fill="white"/>
<path d="M20.3358 23.0911C22.8172 23.0911 24.8217 25.102 24.8217 27.577C24.8217 30.052 22.8108 32.0629 20.3358 32.0629C17.8608 32.0629 15.8499 30.052 15.8499 27.577C15.8499 25.102 17.8543 23.0911 20.3358 23.0911Z" fill="#FFE356"/>
<path d="M20.3357 25.8625C19.7685 24.8055 18.3828 24.7475 17.6867 25.5854C17.1453 26.2428 17.1453 27.3321 18.0798 28.0088C19.1369 28.7887 19.6589 29.0336 20.3357 30.1551C21.0125 29.0336 21.5281 28.7758 22.5916 28.0088C23.5132 27.3321 23.5261 26.2364 22.9847 25.5854C22.2886 24.7475 20.9029 24.8055 20.3357 25.8625Z" fill="#FF8170"/>
</g>
<defs>
<clipPath id="clip0_178_869">
<rect width="33" height="33" fill="white" transform="translate(0.200684 0.455078)"/>
</clipPath>
</defs>
</svg>
