<svg width="39" height="39" viewBox="0 0 39 39" fill="none" xmlns="http://www.w3.org/2000/svg">
<path d="M1.38818 19.9551C1.38818 22.2942 1.84892 24.6105 2.74408 26.7716C3.63924 28.9327 4.9513 30.8964 6.60534 32.5504C8.25939 34.2045 10.223 35.5165 12.3841 36.4117C14.5452 37.3068 16.8615 37.7676 19.2007 37.7676C21.5399 37.7676 23.8561 37.3068 26.0172 36.4117C28.1783 35.5165 30.142 34.2045 31.796 32.5504C33.4501 30.8964 34.7621 28.9327 35.6573 26.7716C36.5524 24.6105 37.0132 22.2942 37.0132 19.9551C37.0132 17.6159 36.5524 15.2996 35.6573 13.1385C34.7621 10.9774 33.4501 9.01378 31.796 7.35974C30.142 5.7057 28.1783 4.39364 26.0172 3.49847C23.8561 2.60331 21.5399 2.14258 19.2007 2.14258C16.8615 2.14258 14.5452 2.60331 12.3841 3.49847C10.223 4.39364 8.25939 5.7057 6.60534 7.35974C4.9513 9.01378 3.63924 10.9774 2.74408 13.1385C1.84892 15.2996 1.38818 17.6159 1.38818 19.9551Z" fill="#FFE8CD"/>
<path d="M8.51318 14.4926C8.51318 13.5426 9.22568 12.8301 10.4132 12.8301H28.2257C29.1757 12.8301 30.1257 13.5426 30.1257 14.4926V25.1801C30.1257 26.1301 29.4132 26.8426 28.2257 26.8426H10.4132C9.46318 26.8426 8.51318 26.1301 8.51318 25.1801V14.4926Z" fill="#FF9D1C"/>
<path d="M8.51318 15.4426H29.8882V18.0551H8.51318V15.4426Z" fill="#FFCA83"/>
<path d="M23.7131 23.5176C23.7131 23.0426 24.1881 22.5676 24.6631 22.5676H27.2756C27.7506 22.5676 28.2256 23.0426 28.2256 23.5176V24.4676C28.2256 24.9426 27.7506 25.4176 27.2756 25.4176H24.6631C24.1881 25.4176 23.7131 24.9426 23.7131 24.4676V23.5176Z" fill="white"/>
</svg>
