<svg width="34" height="34" viewBox="0 0 34 34" fill="none" xmlns="http://www.w3.org/2000/svg">
<circle cx="16.7007" cy="17.4551" r="16.5" fill="#FFC61B" fill-opacity="0.5"/>
<g clip-path="url(#clip0_178_889)">
<path d="M12.8611 26.2295C12.6988 26.2295 12.5382 26.1576 12.4303 26.0199C12.429 26.0183 12.4256 26.014 12.4218 26.0094L10.609 24.1967C10.2309 23.8186 10.0227 23.3159 10.0227 22.7813C10.0227 22.2466 10.2309 21.7439 10.609 21.3658L12.5518 19.4231C13.3322 18.6427 14.6021 18.6426 15.3825 19.4231L16.0019 20.0425C16.57 19.538 17.1707 18.9694 17.7933 18.3467C18.4161 17.7239 18.9847 17.123 19.4889 16.5548L18.8699 15.9357C18.4918 15.5577 18.2836 15.055 18.2836 14.5203C18.2836 13.9857 18.4917 13.483 18.8699 13.1049L20.8126 11.1622C21.1906 10.7842 21.6933 10.5759 22.228 10.5759C22.228 10.5759 22.228 10.5759 22.228 10.5759C22.7627 10.5759 23.2654 10.7842 23.6434 11.1622L25.4646 12.9835C25.5137 13.0326 25.5569 13.0879 25.5923 13.1477C25.7286 13.3766 25.9844 14.0545 25.416 15.3974C24.7574 16.9528 23.2063 18.9585 20.8059 21.359C19.4637 22.7012 18.2361 23.7871 17.1574 24.5865C16.9147 24.7664 16.5721 24.7155 16.3923 24.4727C16.2124 24.23 16.2633 23.8874 16.5061 23.7076C17.5417 22.9401 18.7281 21.8897 20.0324 20.5854C22.3328 18.285 23.8052 16.3959 24.4086 14.9708C24.7416 14.1841 24.6802 13.8136 24.6541 13.7201L22.8698 11.9357C22.5159 11.5818 21.94 11.5817 21.5862 11.9357L19.6435 13.8784C19.2896 14.2323 19.2896 14.8082 19.6435 15.162L20.624 16.1425C20.8262 16.3448 20.8385 16.6686 20.6522 16.8856C20.0522 17.5846 19.3506 18.3365 18.567 19.1201C17.7836 19.9036 17.0321 20.6052 16.3332 21.2057C16.1162 21.3921 15.7922 21.3798 15.59 21.1775L14.609 20.1964C14.2551 19.8425 13.6792 19.8425 13.3253 20.1964L11.3825 22.1392C11.0287 22.4931 11.0287 23.069 11.3825 23.4229L13.2038 25.2441C13.2363 25.2766 13.2693 25.3168 13.2912 25.3449C13.4776 25.5826 13.4359 25.9265 13.1981 26.1128C13.0981 26.1915 12.9791 26.2295 12.8611 26.2295Z" fill="#FFA412"/>
<path d="M9.37134 11.9708H11.4813V9.86084H14.1615V11.9708H16.2715V14.651H14.1615V16.761H11.4813V14.651H9.37134V11.9708Z" fill="#FEE187"/>
<path d="M14.1617 17.3082H11.4814C11.1793 17.3082 10.9344 17.0633 10.9344 16.7612V15.1982H9.37146C9.06934 15.1982 8.82446 14.9533 8.82446 14.6512V11.9709C8.82446 11.6688 9.06934 11.4239 9.37146 11.4239H10.9344V9.86096C10.9344 9.55884 11.1793 9.31396 11.4814 9.31396H14.1617C14.4638 9.31396 14.7087 9.55884 14.7087 9.86096V11.4239H16.2717C16.5738 11.4239 16.8187 11.6688 16.8187 11.9709V14.6512C16.8187 14.9533 16.5738 15.1982 16.2717 15.1982H14.7087V16.7612C14.7087 17.0633 14.4638 17.3082 14.1617 17.3082ZM12.0284 16.2142H13.6147V14.6512C13.6147 14.3491 13.8596 14.1042 14.1617 14.1042H15.7247V12.5179H14.1617C13.8596 12.5179 13.6147 12.273 13.6147 11.9709V10.408H12.0284V11.9709C12.0284 12.273 11.7836 12.5179 11.4814 12.5179H9.91845V14.1042H11.4814C11.7836 14.1042 12.0284 14.3491 12.0284 14.6512V16.2142Z" fill="#FFA412"/>
<path d="M11.0971 27.9935C10.957 27.9935 10.8171 27.9401 10.7103 27.8333C10.4966 27.6197 10.4966 27.2733 10.7103 27.0597L12.474 25.2959C12.6877 25.0824 13.034 25.0823 13.2476 25.2959C13.4612 25.5095 13.4612 25.8559 13.2476 26.0695L11.4838 27.8333C11.377 27.9401 11.237 27.9935 11.0971 27.9935Z" fill="#FFA412"/>
</g>
<defs>
<clipPath id="clip0_178_889">
<rect width="18.6795" height="18.6795" fill="white" transform="translate(7.95703 9.31396)"/>
</clipPath>
</defs>
</svg>
