<svg width="51" height="51" viewBox="0 0 51 51" fill="none" xmlns="http://www.w3.org/2000/svg">
<g clip-path="url(#clip0_178_269)">
<path d="M25.2007 48.9551C39.0078 48.9551 50.2007 38.2099 50.2007 24.9551C50.2007 11.7002 39.0078 0.955078 25.2007 0.955078C11.3936 0.955078 0.200684 11.7002 0.200684 24.9551C0.200684 38.2099 11.3936 48.9551 25.2007 48.9551Z" fill="#E4E7ED"/>
<path d="M35.1154 11.8829C30.4767 7.12129 35.6308 -0.774151 43.7332 4.79094C43.7332 4.79094 41.4831 4.51963 40.5632 5.59429C39.2996 7.07338 41.0786 11.2338 35.1154 11.8829Z" fill="#5FDC68"/>
<path d="M41.8821 3.71631C42.4806 3.99831 43.1013 4.3494 43.7386 4.79106C43.7386 4.79106 41.4885 4.51975 40.5686 5.5944C40.2195 6.00409 40.1031 6.61056 39.9923 7.2969C39.8648 6.63718 40.0089 4.11006 41.8821 3.72165V3.71631Z" fill="#56BF5D"/>
<path d="M40.0698 3.94509C35.5364 3.4769 34.55 9.39843 34.4945 18.3047L34.9878 18.443C35.0432 15.4636 34.827 3.93974 40.0698 3.93974V3.94509Z" fill="#6C7678"/>
<path d="M33.3031 13.4313C34.8438 9.39843 29.5955 5.87643 26.1706 11.2552C26.1706 11.2552 27.4619 10.5317 28.3099 10.9573C29.4737 11.5426 29.5069 14.5113 33.3032 13.4259V13.4313H33.3031Z" fill="#5FDC68"/>
<path d="M27.013 10.1432C26.7248 10.4624 26.4422 10.8296 26.1761 11.2552C26.1761 11.2552 27.4675 10.5316 28.3154 10.9573C28.6369 11.1169 28.8696 11.4574 29.119 11.8457C29.0192 11.4148 28.2544 9.91438 27.013 10.1432Z" fill="#56BF5D"/>
<path d="M28.1713 9.83479C30.9478 8.27592 33.7466 13.1493 34.6942 15.0487L34.6277 15.8894C33.3641 13.3356 30.449 8.8026 28.1713 9.83479Z" fill="#6C7678"/>
<path d="M33.3086 15.3892H36.473V18.4643H33.3086V15.3892Z" fill="white"/>
<path d="M5.78671 30.0946C18.2008 30.0946 28.8525 37.3142 33.4469 47.6144C30.8642 48.4815 28.0932 48.9497 25.2004 48.9497C13.3737 48.9497 3.46464 41.065 0.865417 30.4775C2.46708 30.2275 4.10751 30.0891 5.78114 30.0891L5.78671 30.0946Z" fill="#75BD80"/>
<path d="M31.0782 33.9604C38.6499 33.9604 45.7916 35.1412 52.067 37.2222C54.292 49.8794 38.9251 54.9551 27.9346 54.9551C17.8102 54.9551 -5.00731 51.2253 -3.92908 41.7702C3.48205 38.4184 21.2808 33.9551 31.0782 33.9551V33.9604Z" fill="#83CF8F"/>
<path d="M25.2007 39.8041C34.2147 39.8041 41.5219 39.1824 41.5219 38.4155C41.5219 37.6486 34.2147 37.0269 25.2007 37.0269C16.1868 37.0269 8.87952 37.6486 8.87952 38.4155C8.87952 39.1824 16.1868 39.8041 25.2007 39.8041Z" fill="#75BD80"/>
<path d="M12.3987 20.6828L25.4889 12.9204L38.0084 20.3529V38.8411H12.3987V20.6828Z" fill="white"/>
<path d="M36.1906 15.3892H36.4732V18.4643H36.1906V15.3892Z" fill="#DCE3DB"/>
<path d="M25.2011 24.4019C26.9641 24.4019 28.3933 23.0299 28.3933 21.3374C28.3933 19.645 26.9641 18.2729 25.2011 18.2729C23.4381 18.2729 22.0089 19.645 22.0089 21.3374C22.0089 23.0299 23.4381 24.4019 25.2011 24.4019Z" fill="#EEF3F7"/>
<path d="M38.0084 20.5074V22.4493L25.4889 15.0274L12.3987 22.7898V20.8479L25.0345 13.3515L25.4889 13.0854L25.9378 13.3515L38.0084 20.5074Z" fill="#EEF3F7"/>
<path d="M8.84644 21.8162L25.0347 12.2184L25.4891 11.9524L25.938 12.2184L42.1262 21.8162L41.2229 23.2261L25.4891 13.8942L9.75532 23.2261L8.84644 21.8162Z" fill="#FF7069"/>
<path d="M20.9554 25.8542H29.4458V38.1548H20.9554V25.8542Z" fill="#E4E7ED"/>
<path d="M13.0195 8.44623C14.5546 8.44623 15.8016 9.62205 15.8459 11.0851C15.8681 11.0851 15.8903 11.0851 15.9125 11.0851C16.7327 11.0851 17.3921 11.7235 17.3921 12.5056C17.3921 13.293 16.7271 13.9261 15.9125 13.9261C15.4136 13.9261 14.9758 13.692 14.7098 13.3302C14.2387 13.6707 13.6513 13.8676 13.0195 13.8676C12.6205 13.8676 12.2436 13.7878 11.9 13.6442C11.5397 14.0752 10.9855 14.3518 10.3648 14.3518C9.28413 14.3518 8.40845 13.5112 8.40845 12.4737C8.40845 11.4735 9.2231 10.6541 10.2484 10.5956C10.5144 9.36133 11.6505 8.43555 13.0138 8.43555L13.0195 8.44623Z" fill="#FEFEFE"/>
<path d="M14.8538 25.8542H18.9494V29.1209H14.8538V25.8542Z" fill="#EEF3F7"/>
<path d="M15.0583 26.0457H18.7437V28.924H15.0583V26.0457Z" fill="#83CF8F"/>
<path d="M14.8538 29.6316H18.9494V32.8983H14.8538V29.6316Z" fill="#EEF3F7"/>
<path d="M15.0583 29.823H18.7437V32.7067H15.0583V29.823Z" fill="#83CF8F"/>
<path d="M31.4518 25.8542H35.5529V29.1209H31.4518V25.8542Z" fill="#EEF3F7"/>
<path d="M31.6571 26.0457H35.3426V28.924H31.6571V26.0457Z" fill="#83CF8F"/>
<path d="M31.4518 29.6316H35.5529V32.8983H31.4518V29.6316Z" fill="#EEF3F7"/>
<path d="M31.6571 29.823H35.3426V32.7067H31.6571V29.823Z" fill="#83CF8F"/>
<path d="M25.2008 23.9869C26.725 23.9869 27.9607 22.8006 27.9607 21.3373C27.9607 19.874 26.725 18.6877 25.2008 18.6877C23.6765 18.6877 22.4408 19.874 22.4408 21.3373C22.4408 22.8006 23.6765 23.9869 25.2008 23.9869Z" fill="#5DA668"/>
<path d="M27.1957 23.1729C26.6914 23.6731 25.9875 23.987 25.2061 23.987C23.6821 23.987 22.4462 22.8006 22.4462 21.3374C22.4462 20.7681 22.6346 20.2467 22.9505 19.8157C23.4548 19.3156 24.1587 19.0017 24.94 19.0017C26.464 19.0017 27.7 20.1881 27.7 21.6513C27.7 22.2205 27.5116 22.742 27.1957 23.1729Z" fill="#83CF8F"/>
<path d="M24.9072 18.5015H25.4947V24.1517H24.9072V18.5015Z" fill="#EEF3F7"/>
<path d="M22.2637 21.6086V21.0447H28.1438V21.6086H22.2637Z" fill="#EEF3F7"/>
</g>
<defs>
<clipPath id="clip0_178_269">
<rect width="50" height="50" fill="white" transform="translate(0.200684 0.955078)"/>
</clipPath>
</defs>
</svg>
