<svg width="57" height="58" viewBox="0 0 57 58" fill="none" xmlns="http://www.w3.org/2000/svg">
<path d="M28.5877 20.1629C30.4315 20.1862 32.2272 20.7546 33.7487 21.7964C35.2701 22.8383 36.4493 24.307 37.1377 26.0177C37.8261 27.7283 37.993 29.6045 37.6173 31.4098C37.2416 33.2151 36.3401 34.8688 35.0264 36.1628C33.7127 37.4568 32.0455 38.3332 30.2347 38.6816C28.4239 39.03 26.5505 38.8348 24.8505 38.1206C23.1504 37.4064 21.6997 36.2052 20.6809 34.6682C19.6622 33.1311 19.121 31.3271 19.1255 29.4831C19.1222 28.2462 19.3657 27.0211 19.8418 25.8795C20.3179 24.7379 21.0171 23.7028 21.8983 22.8348C22.7795 21.9668 23.825 21.2834 24.9737 20.8246C26.1223 20.3658 27.351 20.1408 28.5877 20.1629Z" fill="#F7BF75"/>
<path d="M36.4648 42.6122L39.2798 47.4616C42.4246 45.5991 45.0284 42.9475 46.8333 39.7692C48.6381 36.591 49.5815 32.9965 49.5699 29.3416H43.8217V29.4835C43.8233 32.1189 43.1475 34.7104 41.8593 37.0094C40.571 39.3085 38.7134 41.2378 36.4648 42.6122Z" fill="#F7BF75"/>
<path d="M28.5873 8.31177C25.3567 8.32204 22.172 9.07646 19.2801 10.5165C16.3882 11.9566 13.867 14.0435 11.9121 16.6154C9.9571 19.1874 8.62098 22.1751 8.00735 25.3469C7.39373 28.5187 7.5191 31.7892 8.37374 34.9046C9.22838 38.0201 10.7893 40.8968 12.9354 43.3115C15.0815 45.7263 17.7551 47.6141 20.7488 48.8285C23.7424 50.0429 26.9756 50.5513 30.1974 50.3143C33.4193 50.0772 36.5432 49.101 39.3269 47.4614L36.5119 42.6121C34.485 43.8407 32.2013 44.5833 29.8395 44.7817C27.4777 44.9802 25.1021 44.6292 22.8986 43.7561C20.6952 42.8831 18.7238 41.5117 17.1389 39.7495C15.554 37.9872 14.3987 35.882 13.7634 33.5986C13.128 31.3152 13.03 28.9158 13.477 26.5882C13.9239 24.2606 14.9037 22.0682 16.3395 20.1825C17.7754 18.2969 19.6284 16.7693 21.7532 15.7194C23.8781 14.6695 26.2172 14.1258 28.5873 14.131V8.31177Z" fill="#FFDD92"/>
<path d="M28.5879 8.31177V14.131C32.6146 14.1618 36.468 15.7735 39.3176 18.6187C42.1672 21.4639 43.7849 25.3148 43.822 29.3414H49.5702C49.5702 23.7722 47.3611 18.4304 43.4275 14.4879C39.4939 10.5454 34.1571 8.3243 28.5879 8.31177Z" fill="#F1734D"/>
<path d="M28.5868 22.2449C30.0486 22.2402 31.4788 22.6697 32.6961 23.4789C33.9134 24.2881 34.8631 25.4405 35.4246 26.7901C35.9862 28.1396 36.1343 29.6256 35.8503 31.0594C35.5663 32.4933 34.8629 33.8105 33.8293 34.8441C32.7957 35.8777 31.4784 36.5812 30.0445 36.8652C28.6107 37.1492 27.1247 37.001 25.7752 36.4395C24.4256 35.878 23.2732 34.9283 22.464 33.711C21.6548 32.4937 21.2253 31.0635 21.23 29.6017C21.23 27.6506 22.0051 25.7793 23.3848 24.3997C24.7645 23.02 26.6357 22.2449 28.5868 22.2449Z" fill="#F1734D"/>
<path fill-rule="evenodd" clip-rule="evenodd" d="M27.3102 25.0363V24.7997C27.3102 24.486 27.4348 24.1852 27.6566 23.9634C27.8784 23.7416 28.1793 23.6169 28.493 23.6169C28.8066 23.6169 29.1075 23.7416 29.3293 23.9634C29.5511 24.1852 29.6757 24.486 29.6757 24.7997V25.0363C29.9952 25.1889 30.2901 25.3882 30.551 25.6277C30.8064 25.8984 31.0143 26.2103 31.166 26.5502C31.2281 26.6931 31.2615 26.8468 31.2642 27.0026C31.267 27.1584 31.239 27.3132 31.1818 27.4582C31.1247 27.6032 31.0396 27.7355 30.9314 27.8476C30.8231 27.9597 30.6939 28.0493 30.551 28.1115C30.4081 28.1736 30.2543 28.207 30.0985 28.2097C29.9428 28.2124 29.7879 28.1844 29.643 28.1273C29.498 28.0702 29.3657 27.9851 29.2536 27.8768C29.1415 27.7686 29.0519 27.6393 28.9897 27.4964C28.9644 27.4255 28.9241 27.361 28.8714 27.3072C28.7682 27.213 28.6327 27.1622 28.493 27.1653C28.4137 27.1484 28.3317 27.1496 28.2529 27.1685C28.1741 27.1875 28.1006 27.2238 28.0376 27.2748C27.9747 27.3258 27.9239 27.3902 27.889 27.4633C27.8542 27.5365 27.8361 27.6165 27.8361 27.6975C27.8361 27.7785 27.8542 27.8585 27.889 27.9317C27.9239 28.0048 27.9747 28.0692 28.0376 28.1202C28.1006 28.1712 28.1741 28.2075 28.2529 28.2265C28.3317 28.2454 28.4137 28.2465 28.493 28.2297C29.1561 28.2343 29.7977 28.4651 30.3117 28.8842C30.8257 29.3032 31.1811 29.8852 31.3191 30.5338C31.4571 31.1824 31.3694 31.8587 31.0705 32.4506C30.7717 33.0426 30.2796 33.5147 29.6757 33.7888V34.0726C29.6757 34.3863 29.5511 34.6872 29.3293 34.909C29.1075 35.1308 28.8066 35.2554 28.493 35.2554C28.1793 35.2554 27.8784 35.1308 27.6566 34.909C27.4348 34.6872 27.3102 34.3863 27.3102 34.0726V33.8124C26.9794 33.6803 26.6809 33.4786 26.4349 33.221C26.1696 32.9533 25.9535 32.641 25.7962 32.2985C25.6739 32.0067 25.6725 31.6784 25.7922 31.3856C25.912 31.0928 26.1432 30.8596 26.4349 30.7372C26.7267 30.6149 27.0551 30.6134 27.3478 30.7332C27.6406 30.853 27.8739 31.0842 27.9962 31.3759C27.984 31.4304 27.984 31.487 27.9962 31.5415C28.0685 31.6229 28.1627 31.6818 28.2676 31.7112C28.3724 31.7405 28.4835 31.7391 28.5876 31.7071C28.7319 31.7071 28.8703 31.6498 28.9723 31.5477C29.0743 31.4457 29.1317 31.3073 29.1317 31.163C29.1317 31.0187 29.0743 30.8803 28.9723 30.7783C28.8703 30.6763 28.7319 30.6189 28.5876 30.6189C27.9245 30.6144 27.2828 30.3835 26.7688 29.9645C26.2549 29.5455 25.8995 28.9635 25.7615 28.3149C25.6235 27.6663 25.7112 26.99 26.01 26.3981C26.3089 25.8061 26.801 25.334 27.4048 25.0599L27.3102 25.0363Z" fill="#FFEABB"/>
</svg>
