<svg width="49" height="49" viewBox="0 0 49 49" fill="none" xmlns="http://www.w3.org/2000/svg">
<path d="M1.70068 24.9551C1.70068 27.9098 2.28266 30.8356 3.41339 33.5655C4.54412 36.2953 6.20146 38.7757 8.29078 40.865C10.3801 42.9543 12.8605 44.6116 15.5903 45.7424C18.3201 46.8731 21.2459 47.4551 24.2007 47.4551C27.1554 47.4551 30.0812 46.8731 32.8111 45.7424C35.5409 44.6116 38.0213 42.9543 40.1106 40.865C42.1999 38.7757 43.8572 36.2953 44.988 33.5655C46.1187 30.8356 46.7007 27.9098 46.7007 24.9551C46.7007 22.0003 46.1187 19.0745 44.988 16.3447C43.8572 13.6149 42.1999 11.1345 40.1106 9.04518C38.0213 6.95586 35.5409 5.29852 32.8111 4.16779C30.0812 3.03706 27.1554 2.45508 24.2007 2.45508C21.2459 2.45508 18.3201 3.03706 15.5903 4.16779C12.8605 5.29852 10.3801 6.95586 8.29078 9.04518C6.20146 11.1345 4.54412 13.6149 3.41339 16.3447C2.28266 19.0745 1.70068 22.0003 1.70068 24.9551Z" fill="#E5F1FF"/>
<path d="M14.3007 21.3551C14.3007 22.6552 14.5568 23.9425 15.0543 25.1436C15.5518 26.3448 16.2811 27.4361 17.2004 28.3554C18.1197 29.2747 19.211 30.004 20.4122 30.5015C21.6133 30.999 22.9006 31.2551 24.2007 31.2551C25.5008 31.2551 26.7882 30.999 27.9893 30.5015C29.1904 30.004 30.2818 29.2747 31.2011 28.3554C32.1204 27.4361 32.8496 26.3448 33.3471 25.1436C33.8447 23.9425 34.1007 22.6552 34.1007 21.3551C34.1007 18.7294 33.0577 16.2113 31.2011 14.3547C29.3445 12.4981 26.8264 11.4551 24.2007 11.4551C21.5751 11.4551 19.057 12.4981 17.2004 14.3547C15.3438 16.2113 14.3007 18.7294 14.3007 21.3551Z" fill="#A9D2FF"/>
<path d="M24.2006 21.3551C23.9006 21.3551 23.9006 21.3551 23.6006 21.0551L20.6006 16.8551C20.3006 16.5551 20.6006 16.2551 20.6006 15.9551C20.9006 15.6551 21.2006 15.9551 21.5006 15.9551L24.5006 20.1551C24.8006 20.4551 24.5006 20.7551 24.5006 21.0551C24.5006 21.3551 24.2006 21.3551 24.2006 21.3551Z" fill="white"/>
<path d="M24.2006 27.055C23.9006 27.055 23.6006 26.755 23.6006 26.455V20.455L26.9006 16.255C26.9006 15.955 27.5006 15.955 27.5006 16.255C27.8006 16.555 27.8006 16.855 27.5006 17.155L24.5006 21.055V26.455C24.8006 26.755 24.5006 27.055 24.2006 27.055Z" fill="white"/>
<path d="M26.3008 21.355H22.1008C21.8008 21.355 21.5008 21.055 21.5008 20.755C21.5008 20.455 21.8008 20.155 22.1008 20.155H26.3008C26.6008 20.155 26.9008 20.455 26.9008 20.755C26.9008 21.055 26.6008 21.355 26.3008 21.355ZM26.3008 23.455H22.1008C21.8008 23.455 21.5008 23.155 21.5008 22.855C21.5008 22.555 21.8008 22.255 22.1008 22.255H26.3008C26.6008 22.255 26.9008 22.555 26.9008 22.855C26.9008 23.155 26.6008 23.455 26.3008 23.455Z" fill="white"/>
<path d="M37.4007 28.855C36.8007 27.655 35.3007 27.655 34.4007 27.955L31.7007 28.555C31.7007 29.455 31.4007 30.055 30.5007 30.955C28.7007 32.455 25.4007 32.755 23.0007 32.755H20.3007C19.7007 32.755 19.4007 32.155 19.7007 31.855C19.7007 31.255 20.3007 30.955 20.6007 31.255C22.4007 31.555 27.5007 31.555 29.3007 30.055C29.9007 29.155 30.2007 28.855 30.2007 28.255C29.6007 27.655 28.7007 27.355 28.1007 27.355H11.3007C11.0007 27.355 10.7007 27.655 10.7007 27.955V34.255C10.7007 34.555 11.0007 34.855 11.3007 34.855C15.8007 36.355 21.5007 38.155 24.8007 38.155H26.0007C28.1007 37.855 35.3007 33.055 36.8007 31.855C37.4007 31.255 37.7007 30.055 37.4007 28.855Z" fill="#72AEFD"/>
</svg>
