<svg width="13" height="13" viewBox="0 0 13 13" fill="none" xmlns="http://www.w3.org/2000/svg">
<path fill-rule="evenodd" clip-rule="evenodd" d="M4.354 8.14873C4.07793 7.98037 3.75197 7.91311 3.4318 7.95844H2.61694V10.8861H3.2659V9.76869H3.54403C3.83215 9.79829 4.12167 9.72763 4.36376 9.56863C4.56926 9.39238 4.68255 9.13161 4.67116 8.86112C4.68638 8.58643 4.56831 8.32124 4.354 8.14873ZM3.83191 9.21732C3.70934 9.27127 3.57457 9.29149 3.44156 9.27587H3.25126V8.44637H3.44156C3.57974 8.43169 3.71915 8.45889 3.84167 8.52444C3.95578 8.60392 4.02044 8.73694 4.01245 8.87576C4.02723 9.01571 3.95588 9.1507 3.83191 9.21732ZM6.06667 7.95844H5.25669V10.8861H6.03251C6.4279 10.9248 6.82605 10.8485 7.17917 10.6665C7.56772 10.3769 7.7753 9.9043 7.72566 9.42225C7.75475 9.00928 7.6076 8.60331 7.32067 8.30487C6.96624 8.02551 6.51425 7.90064 6.06667 7.95844ZM6.71075 10.2225C6.50747 10.3367 6.2747 10.3877 6.04227 10.3689H5.91541V8.47565H6.03251C6.44238 8.47565 6.6034 8.51469 6.76442 8.66107C6.95984 8.86453 7.06076 9.14074 7.04255 9.42225C7.06765 9.72692 6.94407 10.025 6.71075 10.2225ZM8.43805 10.8861H9.09677V9.66134H10.424V9.14413H9.09677V8.47565H10.424V7.95844H8.43805V10.8861ZM7.98427 1.61523H2.61694V6.98256H3.59282V6.00668V5.49435V2.59111H7.57928L9.44808 4.45992V5.49435V6.00668V6.98256H10.424V4.05493L7.98427 1.61523Z" fill="black"/>
</svg>
