<svg width="27" height="27" viewBox="0 0 27 27" fill="none" xmlns="http://www.w3.org/2000/svg">
<g clip-path="url(#clip0_178_1518)">
<path d="M23.2026 6.99206C23.075 6.82753 22.8892 6.71823 22.6834 6.68672C22.4776 6.65521 22.2676 6.70388 22.0967 6.8227C21.9257 6.94153 21.8069 7.12143 21.7647 7.3253C21.7226 7.52916 21.7603 7.74143 21.8701 7.91831C22.817 9.2789 23.4305 10.8433 23.6608 12.4849C23.8911 14.1265 23.7317 15.7993 23.1957 17.3679C22.6596 18.9366 21.7618 20.357 20.575 21.5143C19.3882 22.6717 17.9457 23.5335 16.3641 24.0299C14.7825 24.5264 13.1062 24.6436 11.4709 24.3721C9.83556 24.1007 8.2871 23.4481 6.95074 22.4672C5.61439 21.4863 4.52766 20.2047 3.77847 18.7259C3.02928 17.2472 2.63865 15.6129 2.63819 13.9552C2.64843 11.6824 3.38703 9.47276 4.74556 7.65066C6.1041 5.82855 8.011 4.48998 10.1863 3.83144C10.2887 3.80103 10.3842 3.75074 10.4672 3.68345C10.5502 3.61616 10.6191 3.53318 10.67 3.43924C10.721 3.34531 10.7529 3.24227 10.764 3.136C10.7751 3.02973 10.7652 2.92231 10.7347 2.81988C10.7043 2.71745 10.6541 2.62201 10.5868 2.53901C10.5195 2.45601 10.4365 2.38708 10.3426 2.33616C10.2486 2.28523 10.1456 2.2533 10.0393 2.2422C9.93304 2.23109 9.82562 2.24103 9.72319 2.27144C7.55679 2.9164 5.61244 4.15112 4.10744 5.8376C2.60245 7.52409 1.59611 9.59588 1.20091 11.8214C0.805712 14.047 1.03722 16.3386 1.86955 18.4401C2.70189 20.5416 4.10226 22.3703 5.91416 23.7217C7.72605 25.0731 9.87807 25.894 12.1297 26.0926C14.3813 26.2913 16.6438 25.8598 18.6643 24.8465C20.6848 23.8332 22.3837 22.2779 23.5711 20.3546C24.7585 18.4312 25.3876 16.2156 25.3882 13.9552C25.3927 11.4647 24.6295 9.03326 23.2026 6.99206Z" fill="white"/>
<path d="M16.2151 3.8312C17.4818 4.21554 18.6644 4.8358 19.7007 5.65933C19.7845 5.72548 19.8804 5.77449 19.9831 5.80355C20.0858 5.83262 20.1933 5.84117 20.2993 5.82872C20.4053 5.81627 20.5078 5.78307 20.601 5.731C20.6941 5.67893 20.7761 5.60902 20.8423 5.52526C20.9084 5.44151 20.9574 5.34554 20.9865 5.24284C21.0156 5.14014 21.0241 5.03272 21.0117 4.92672C20.9992 4.82071 20.966 4.7182 20.914 4.62503C20.8619 4.53186 20.792 4.44986 20.7082 4.3837C19.5008 3.42752 18.1219 2.71053 16.6457 2.2712C16.4389 2.20979 16.2161 2.23307 16.0264 2.33592C15.8367 2.43877 15.6956 2.61277 15.6342 2.81964C15.5727 3.02651 15.596 3.2493 15.6989 3.43901C15.8017 3.62871 15.9757 3.76979 16.1826 3.8312H16.2151ZM12.6238 3.15683C12.7028 3.2286 12.7935 3.28631 12.892 3.32745C12.9892 3.37044 13.0944 3.39264 13.2007 3.39264C13.3071 3.39264 13.4122 3.37044 13.5095 3.32745C13.6079 3.28616 13.6985 3.22847 13.7776 3.15683C13.8529 3.08091 13.9125 2.99087 13.9529 2.89188C13.9933 2.79288 14.0138 2.68688 14.0132 2.57995C14.0102 2.36483 13.9261 2.15878 13.7776 2.00308C13.6838 1.90525 13.567 1.83244 13.4379 1.79129C13.3087 1.75014 13.1713 1.74194 13.0382 1.76745C12.9874 1.77646 12.9381 1.79289 12.892 1.8162C12.8401 1.8338 12.7909 1.85841 12.7457 1.88933L12.6238 1.98683C12.5499 2.0641 12.4919 2.15522 12.4532 2.25495C12.4095 2.35767 12.3873 2.4683 12.3882 2.57995C12.3895 2.68613 12.4116 2.79102 12.4532 2.8887C12.4945 2.98709 12.5522 3.07775 12.6238 3.15683ZM18.6526 8.50308C18.5004 8.35175 18.2944 8.26681 18.0798 8.26681C17.8651 8.26681 17.6592 8.35175 17.507 8.50308L13.2007 12.8093L8.9026 8.50308C8.74717 8.36997 8.54723 8.30041 8.34274 8.30831C8.13826 8.31621 7.94428 8.40098 7.79958 8.54568C7.65488 8.69038 7.57011 8.88436 7.56221 9.08885C7.55431 9.29333 7.62386 9.49327 7.75697 9.6487L12.0551 13.955L7.74885 18.2531C7.66379 18.3259 7.59472 18.4156 7.54595 18.5164C7.49718 18.6172 7.46977 18.7269 7.46545 18.8388C7.46113 18.9507 7.47998 19.0623 7.52083 19.1666C7.56168 19.2709 7.62364 19.3656 7.70282 19.4447C7.782 19.5239 7.8767 19.5859 7.98096 19.6267C8.08522 19.6676 8.19681 19.6864 8.3087 19.6821C8.4206 19.6778 8.5304 19.6504 8.6312 19.6016C8.732 19.5528 8.82163 19.4838 8.89447 19.3987L13.2007 15.1006L17.4988 19.3987C17.6543 19.5318 17.8542 19.6014 18.0587 19.5935C18.2632 19.5856 18.4572 19.5008 18.6019 19.3561C18.7466 19.2114 18.8313 19.0174 18.8392 18.8129C18.8471 18.6084 18.7776 18.4085 18.6445 18.2531L14.3463 13.955L18.6445 9.65683C18.7212 9.58183 18.7822 9.4924 18.8242 9.39367C18.8661 9.29495 18.8881 9.18891 18.8889 9.08165C18.8896 8.97438 18.8691 8.86804 18.8286 8.76874C18.788 8.66943 18.7282 8.57914 18.6526 8.50308Z" fill="white"/>
</g>
<defs>
<clipPath id="clip0_178_1518">
<rect width="26" height="26" fill="white" transform="translate(0.200684 0.955078)"/>
</clipPath>
</defs>
</svg>
