<svg width="18" height="18" viewBox="0 0 18 18" fill="none" xmlns="http://www.w3.org/2000/svg">
<g clip-path="url(#clip0_178_1337)">
<path d="M9.33118 5.12012H3.82034C2.60909 5.12012 1.61743 6.11178 1.61743 7.32303V15.3697C1.61743 16.3968 2.3541 16.836 3.25368 16.333L6.03742 14.7818C6.33492 14.6189 6.8166 14.6189 7.10701 14.7818L9.89076 16.333C10.7903 16.836 11.527 16.3968 11.527 15.3697V7.32303C11.5341 6.11178 10.5424 5.12012 9.33118 5.12012Z" stroke="white" stroke-width="1.0625" stroke-linecap="round" stroke-linejoin="round"/>
<path d="M11.5341 7.32303V15.3697C11.5341 16.3968 10.7974 16.8289 9.89785 16.333L7.11411 14.7818C6.81661 14.6189 6.33492 14.6189 6.03742 14.7818L3.25368 16.333C2.3541 16.8289 1.61743 16.3968 1.61743 15.3697V7.32303C1.61743 6.11178 2.60909 5.12012 3.82034 5.12012H9.33118C10.5424 5.12012 11.5341 6.11178 11.5341 7.32303Z" stroke="white" stroke-width="1.0625" stroke-linecap="round" stroke-linejoin="round"/>
<path opacity="0.4" d="M15.7841 4.57449V12.6212C15.7841 13.6482 15.0474 14.0803 14.1478 13.5845L11.5341 12.1253V7.32282C11.5341 6.11157 10.5424 5.11992 9.33118 5.11992H5.86743V4.57449C5.86743 3.36324 6.85909 2.37158 8.07035 2.37158H13.5812C14.7924 2.37158 15.7841 3.36324 15.7841 4.57449Z" stroke="white" stroke-width="1.0625" stroke-linecap="round" stroke-linejoin="round"/>
</g>
<defs>
<clipPath id="clip0_178_1337">
<rect width="17" height="17" fill="white" transform="translate(0.200684 0.955078)"/>
</clipPath>
</defs>
</svg>
