<svg width="53" height="53" viewBox="0 0 53 53" fill="none" xmlns="http://www.w3.org/2000/svg">
<circle cx="25.3364" cy="27.6574" r="22.3757" fill="#FFEDC6"/>
<path d="M26.1466 18.2577C27.8305 18.279 29.4705 18.7981 30.8601 19.7496C32.2496 20.7012 33.3265 22.0425 33.9552 23.6049C34.584 25.1672 34.7363 26.8806 34.3932 28.5294C34.0501 30.1782 33.2268 31.6886 32.027 32.8704C30.8272 34.0522 29.3045 34.8526 27.6508 35.1707C25.997 35.4889 24.2861 35.3106 22.7334 34.6584C21.1808 34.0061 19.8558 32.909 18.9254 31.5053C17.995 30.1015 17.5007 28.4539 17.5049 26.7698C17.5018 25.6401 17.7242 24.5212 18.159 23.4786C18.5939 22.436 19.2324 21.4907 20.0372 20.698C20.842 19.9052 21.7969 19.2811 22.8459 18.8621C23.895 18.443 25.0171 18.2376 26.1466 18.2577Z" fill="#F7BF75"/>
<path d="M33.3408 38.7604L35.9117 43.1893C38.7839 41.4883 41.1618 39.0666 42.8102 36.1639C44.4586 33.2613 45.3202 29.9784 45.3096 26.6404H40.0598V26.77C40.0612 29.1769 39.4441 31.5437 38.2675 33.6434C37.0909 35.7431 35.3944 37.5051 33.3408 38.7604Z" fill="#F7BF75"/>
<path d="M26.1462 7.43408C23.1958 7.44346 20.2871 8.13247 17.646 9.44765C15.0049 10.7628 12.7023 12.6688 10.9168 15.0178C9.13137 17.3667 7.9111 20.0954 7.35068 22.9921C6.79026 25.8889 6.90476 28.8758 7.6853 31.7212C8.46584 34.5665 9.89143 37.1938 11.8515 39.3991C13.8115 41.6045 16.2533 43.3286 18.9873 44.4377C21.7214 45.5468 24.6742 46.0112 27.6167 45.7946C30.5592 45.5781 33.4123 44.6866 35.9546 43.1892L33.3836 38.7603C31.5326 39.8824 29.4468 40.5606 27.2898 40.7418C25.1328 40.9231 22.9632 40.6025 20.9508 39.8052C18.9384 39.0078 17.138 37.7553 15.6905 36.1459C14.243 34.5365 13.1878 32.6137 12.6076 30.5284C12.0274 28.443 11.9378 26.2516 12.346 24.1258C12.7542 22.0001 13.649 19.9977 14.9604 18.2755C16.2718 16.5534 17.9641 15.1582 19.9047 14.1994C21.8453 13.2405 23.9816 12.744 26.1462 12.7487V7.43408Z" fill="#FFDD92"/>
<path d="M26.1465 7.43408V12.7487C29.8241 12.7769 33.3434 14.2489 35.9459 16.8473C38.5484 19.4458 40.0258 22.9628 40.0597 26.6403H45.3096C45.3096 21.554 43.292 16.6753 39.6995 13.0747C36.1069 9.47408 31.2329 7.44552 26.1465 7.43408Z" fill="#F1734D"/>
<path d="M26.1459 20.1592C27.4809 20.1549 28.7871 20.5472 29.8989 21.2862C31.0106 22.0252 31.8779 23.0777 32.3908 24.3103C32.9036 25.5428 33.039 26.8999 32.7796 28.2094C32.5202 29.519 31.8777 30.722 30.9338 31.666C29.9898 32.61 28.7868 33.2524 27.4772 33.5118C26.1677 33.7712 24.8106 33.6359 23.578 33.123C22.3455 32.6102 21.293 31.7429 20.554 30.6311C19.8149 29.5193 19.4227 28.2131 19.427 26.8781C19.427 25.0962 20.1349 23.3872 21.3949 22.1271C22.6549 20.8671 24.3639 20.1592 26.1459 20.1592Z" fill="#F1734D"/>
<path fill-rule="evenodd" clip-rule="evenodd" d="M24.9798 22.7084V22.4923C24.9798 22.2058 25.0936 21.9311 25.2962 21.7285C25.4987 21.5259 25.7735 21.4121 26.06 21.4121C26.3465 21.4121 26.6212 21.5259 26.8238 21.7285C27.0264 21.9311 27.1402 22.2058 27.1402 22.4923V22.7084C27.4319 22.8478 27.7013 23.0298 27.9396 23.2485C28.1728 23.4958 28.3627 23.7806 28.5013 24.091C28.558 24.2215 28.5885 24.362 28.591 24.5042C28.5935 24.6465 28.5679 24.7879 28.5157 24.9203C28.4636 25.0527 28.3858 25.1736 28.287 25.2759C28.1881 25.3783 28.0701 25.4602 27.9396 25.5169C27.809 25.5737 27.6686 25.6041 27.5264 25.6066C27.3841 25.6091 27.2427 25.5835 27.1103 25.5314C26.9779 25.4792 26.857 25.4015 26.7547 25.3026C26.6523 25.2038 26.5704 25.0857 26.5137 24.9552C26.4906 24.8905 26.4537 24.8315 26.4056 24.7824C26.3113 24.6964 26.1876 24.65 26.06 24.6528C25.9876 24.6374 25.9127 24.6384 25.8407 24.6557C25.7688 24.673 25.7016 24.7062 25.6441 24.7528C25.5866 24.7994 25.5403 24.8582 25.5084 24.925C25.4766 24.9918 25.46 25.0649 25.46 25.1389C25.46 25.2129 25.4766 25.2859 25.5084 25.3527C25.5403 25.4195 25.5866 25.4783 25.6441 25.5249C25.7016 25.5715 25.7688 25.6047 25.8407 25.622C25.9127 25.6393 25.9876 25.6403 26.06 25.6249C26.6656 25.6291 27.2516 25.8399 27.721 26.2226C28.1904 26.6053 28.515 27.1368 28.6411 27.7292C28.7671 28.3216 28.687 28.9392 28.4141 29.4798C28.1411 30.0205 27.6917 30.4516 27.1402 30.702V30.9612C27.1402 31.2477 27.0264 31.5225 26.8238 31.725C26.6212 31.9276 26.3465 32.0414 26.06 32.0414C25.7735 32.0414 25.4987 31.9276 25.2962 31.725C25.0936 31.5225 24.9798 31.2477 24.9798 30.9612V30.7236C24.6777 30.6029 24.4051 30.4187 24.1804 30.1835C23.9381 29.9389 23.7407 29.6537 23.5971 29.3409C23.4854 29.0744 23.484 28.7745 23.5934 28.5071C23.7028 28.2397 23.914 28.0267 24.1804 27.915C24.4468 27.8033 24.7468 27.802 25.0142 27.9113C25.2816 28.0207 25.4946 28.2319 25.6063 28.4983C25.5951 28.5481 25.5951 28.5998 25.6063 28.6495C25.6723 28.7239 25.7584 28.7777 25.8541 28.8045C25.9499 28.8313 26.0513 28.83 26.1464 28.8008C26.2782 28.8008 26.4046 28.7484 26.4978 28.6552C26.5909 28.5621 26.6433 28.4357 26.6433 28.3039C26.6433 28.1721 26.5909 28.0457 26.4978 27.9525C26.4046 27.8593 26.2782 27.807 26.1464 27.807C25.5408 27.8029 24.9548 27.592 24.4854 27.2093C24.016 26.8266 23.6914 26.2951 23.5653 25.7027C23.4393 25.1104 23.5194 24.4927 23.7923 23.9521C24.0653 23.4115 24.5147 22.9803 25.0662 22.73L24.9798 22.7084Z" fill="#FFEABB"/>
</svg>
