<svg width="119" height="111" viewBox="0 0 119 111" fill="none" xmlns="http://www.w3.org/2000/svg">
<g filter="url(#filter0_dddi_26_50)">
<g clip-path="url(#clip0_26_50)">
<rect x="15" width="89.0164" height="89.0164" rx="44.5082" fill="url(#paint0_linear_26_50)"/>
<path d="M32.3429 28.718C32.4552 26.949 33.4919 25.3774 35.1052 24.6432C40.5147 22.1815 53.2699 16.8591 62.0969 17.0266C71.2623 17.2006 83.0932 22.321 88.085 24.6852C89.5932 25.3995 90.5782 26.8588 90.7505 28.5187L92.4561 44.9476C92.5283 45.6426 92.4534 46.345 92.2362 47.0091L84.9937 69.1574C84.4407 70.8484 83.0275 72.1158 81.2864 72.482L60.5104 76.8519C59.5329 77.0575 58.5162 76.9643 57.5923 76.5844L41.0124 69.7666C39.7835 69.2613 38.8075 68.2856 38.3018 67.0567L31.4682 50.4501C31.1803 49.7507 31.0557 48.9949 31.1036 48.2401L32.3429 28.718Z" fill="#3D3C3B"/>
</g>
</g>
<g filter="url(#filter1_f_26_50)">
<path d="M36.2276 77.048C36.8474 77.379 37.5393 77.5521 38.242 77.5521H81.5676C82.3043 77.5521 83.0285 77.3618 83.67 76.9996C87.3862 74.9015 85.897 69.2349 81.6295 69.2349H38.1827C33.8622 69.2349 32.4162 75.0131 36.2276 77.048Z" fill="#BDBDBD"/>
</g>
<path d="M22.7318 40.1719C24.3904 20.9401 40.4855 6.17339 59.7886 6.17339C79.2102 6.17339 95.3623 21.1163 96.8707 40.4792L97.0777 43.1373C98.7791 64.9783 81.515 83.6396 59.6078 83.6396C37.7594 83.6396 20.5963 64.9326 22.4736 43.1649L22.7318 40.1719Z" fill="url(#paint1_linear_26_50)"/>
<path d="M37.4323 67.76C36.3823 68.7801 36.4924 70.4815 37.706 71.3C42.1445 74.2933 52.2331 80.4242 60.1812 80.2541C67.7564 80.092 77.2466 74.1235 81.4081 71.2351C82.5647 70.4323 82.6974 68.8119 81.735 67.7844L72.0698 57.4651C71.111 56.4414 69.452 56.4403 68.3169 57.2642C66.5644 58.536 63.7312 60.0665 60.1812 60.1372C56.1833 60.2168 53.1633 58.7687 51.3666 57.5762C50.2543 56.8379 48.6909 56.8208 47.7333 57.7512L37.4323 67.76Z" fill="#D9D9D9"/>
<g filter="url(#filter2_dddi_26_50)">
<path d="M37.4323 67.6615C36.3823 68.6816 36.4924 70.383 37.706 71.2015C42.1445 74.1947 52.2331 80.3257 60.1812 80.1556C67.7564 79.9934 77.2466 74.0249 81.4081 71.1365C82.5647 70.3338 82.6974 68.7134 81.735 67.6859L72.0698 57.3666C71.111 56.3429 69.452 56.3418 68.3169 57.1656C66.5644 58.4375 63.7312 59.968 60.1812 60.0386C56.1833 60.1182 53.1633 58.6702 51.3666 57.4777C50.2543 56.7393 48.6909 56.7222 47.7333 57.6526L37.4323 67.6615Z" fill="url(#paint2_linear_26_50)"/>
</g>
<path d="M40.9474 68.5838C41.4127 70.5436 42.7125 72.2237 44.5469 73.056C48.4757 74.8385 55.5904 77.7267 60.3255 77.6653C64.426 77.6122 71.1436 74.9542 75.3674 73.0881C77.7545 72.0336 79.224 69.6446 79.224 67.035L79.224 66.4138C79.224 64.7748 78.2713 63.2853 76.7834 62.5979L57.2388 53.5691L44.0836 61.228C41.5361 62.7111 40.2665 65.7158 40.9474 68.5838Z" fill="url(#paint3_linear_26_50)"/>
<g filter="url(#filter3_f_26_50)">
<path d="M48.32 61.7583C48.8412 60.3657 50.2937 59.5547 51.7527 59.8418L60.3591 61.5348L68.7934 59.8608C70.2826 59.5653 71.7601 60.4199 72.2463 61.8582C72.8247 63.5691 71.7351 65.3915 69.9542 65.6918L60.3591 67.3099L50.603 65.7027C48.7694 65.4006 47.6686 63.4987 48.32 61.7583Z" fill="#BDBDBD"/>
</g>
<path d="M37.4323 21.0607C36.3823 20.0405 36.4924 18.3391 37.706 17.5207C42.1445 14.5274 52.2331 8.39642 60.1812 8.56655C67.7564 8.72869 77.2466 14.6972 81.4081 17.5856C82.5647 18.3883 82.6974 20.0087 81.735 21.0363L72.0698 31.3555C71.111 32.3792 69.452 32.3803 68.3169 31.5565C66.5644 30.2846 63.7312 28.7542 60.1812 28.6835C56.1833 28.6039 53.1633 30.0519 51.3666 31.2444C50.2543 31.9828 48.6909 31.9999 47.7333 31.0695L37.4323 21.0607Z" fill="#D9D9D9"/>
<g filter="url(#filter4_dddi_26_50)">
<path d="M37.4323 21.1592C36.3823 20.1391 36.4924 18.4377 37.706 17.6192C42.1445 14.6259 52.2331 8.49496 60.1812 8.66509C67.7564 8.82724 77.2466 14.7957 81.4081 17.6841C82.5647 18.4869 82.6974 20.1073 81.735 21.1348L72.0698 31.454C71.111 32.4777 69.452 32.4788 68.3169 31.655C66.5644 30.3832 63.7312 28.8527 60.1812 28.782C56.1833 28.7024 53.1633 30.1505 51.3666 31.343C50.2543 32.0813 48.6909 32.0984 47.7333 31.168L37.4323 21.1592Z" fill="url(#paint4_linear_26_50)"/>
</g>
<path d="M40.9474 20.2369C41.4127 18.277 42.7125 16.5969 44.5469 15.7647C48.4757 13.9822 55.5904 11.094 60.3255 11.1553C64.426 11.2085 71.1436 13.8665 75.3674 15.7325C77.7545 16.7871 79.224 19.176 79.224 21.7857L79.224 22.4069C79.224 24.0459 78.2713 25.5354 76.7834 26.2227L57.2388 35.2515L44.0836 27.5926C41.5361 26.1096 40.2665 23.1049 40.9474 20.2369Z" fill="url(#paint5_linear_26_50)"/>
<g filter="url(#filter5_f_26_50)">
<path d="M48.32 27.0623C48.8412 28.455 50.2937 29.2659 51.7527 28.9789L60.3591 27.2859L68.7934 28.9598C70.2826 29.2554 71.7601 28.4007 72.2463 26.9624C72.8247 25.2515 71.7351 23.4292 69.9542 23.1289L60.3591 21.5107L50.603 23.118C48.7694 23.42 47.6686 25.3219 48.32 27.0623Z" fill="#D2D2D2"/>
</g>
<path d="M82.4544 24.004C83.4342 23.0862 84.9654 23.1555 85.8028 24.2038C88.8349 27.9992 95.2198 36.8339 95.1701 43.8735C95.1228 50.5836 89.2048 59.1092 86.407 62.768C85.6245 63.7913 84.1728 63.9341 83.1643 63.134L72.9606 55.0378C71.7655 54.0895 71.729 52.232 72.6361 51.004C73.7997 49.4288 75.0412 47.0835 75.0565 44.235C75.0737 41.012 73.8175 38.5351 72.6681 36.9462C71.814 35.7656 71.7701 34.0118 72.8343 33.015L82.4544 24.004Z" fill="#D9D9D9"/>
<g filter="url(#filter6_dddi_26_50)">
<path d="M82.3474 24.0577C83.3245 23.1377 84.8559 23.2036 85.6964 24.2499C88.7395 28.0385 95.1501 36.8588 95.1209 43.8984C95.093 50.6085 89.1997 59.1472 86.4124 62.8122C85.6329 63.8372 84.1816 63.9833 83.1708 63.1854L72.9435 55.1122C71.7456 54.1666 71.7038 52.3092 72.6073 51.0792C73.7663 49.5014 75.0011 47.1534 75.0081 44.3049C75.016 41.0819 73.7526 38.6079 72.5985 37.0216C71.741 35.8429 71.692 34.0892 72.7533 33.0901L82.3474 24.0577Z" fill="url(#paint6_linear_26_50)"/>
</g>
<path d="M83.3201 27.2612C85.2358 27.6205 86.9141 28.7692 87.8389 30.4849C89.6969 33.9321 92.6112 39.985 92.6335 44.0751C92.6529 47.6293 90.1822 53.4722 88.3963 57.2266C87.3326 59.463 85.069 60.8318 82.5931 60.8819L81.7198 60.8995C80.0669 60.9329 78.5316 60.0476 77.7327 58.6002L68.4875 41.8513L75.9045 30.1541C77.3704 27.8422 80.0968 26.6567 82.7874 27.1613L83.3201 27.2612Z" fill="url(#paint7_linear_26_50)"/>
<g filter="url(#filter7_f_26_50)">
<path d="M76.7707 34.253C75.2804 34.7561 74.4293 36.3223 74.818 37.8465L76.5087 44.4773L75.1057 51.0208C74.7704 52.5847 75.724 54.1358 77.2708 54.5426C78.9106 54.9739 80.5697 53.9149 80.8689 52.246L82.2827 44.3606L80.5581 36.4011C80.1892 34.6986 78.4212 33.6959 76.7707 34.253Z" fill="#BDBDBD"/>
</g>
<path d="M35.7644 24.0046C34.7846 23.0868 33.2534 23.1561 32.416 24.2043C29.3839 27.9998 22.999 36.8345 23.0486 43.8741C23.0959 50.5842 29.0139 59.1098 31.8118 62.7686C32.5943 63.7919 34.046 63.9347 35.0544 63.1345L45.2581 55.0384C46.4533 54.0901 46.4897 52.2326 45.5827 51.0046C44.4191 49.4294 43.1775 47.0841 43.1623 44.2356C43.145 41.0126 44.4012 38.5357 45.5506 36.9468C46.4047 35.7662 46.4486 34.0124 45.3845 33.0156L35.7644 24.0046Z" fill="#D9D9D9"/>
<g filter="url(#filter8_dddi_26_50)">
<path d="M35.8714 24.0582C34.8942 23.1383 33.3628 23.2042 32.5224 24.2505C29.4793 28.0391 23.0687 36.8594 23.0979 43.899C23.1257 50.6091 29.0191 59.1478 31.8063 62.8128C32.5859 63.8378 34.0372 63.9839 35.048 63.186L45.2752 55.1128C46.4731 54.1672 46.515 52.3098 45.6115 51.0798C44.4525 49.502 43.2177 47.154 43.2107 44.3055C43.2028 41.0825 44.4662 38.6085 45.6202 37.0221C46.4777 35.8435 46.5267 34.0898 45.4655 33.0907L35.8714 24.0582Z" fill="url(#paint8_linear_26_50)"/>
</g>
<path d="M34.8987 27.2618C32.983 27.6211 31.3046 28.7698 30.3799 30.4855C28.5219 33.9327 25.6076 39.9856 25.5852 44.0757C25.5658 47.6299 28.0365 53.4728 29.8224 57.2272C30.8862 59.4636 33.1497 60.8324 35.6257 60.8825L36.499 60.9001C38.1519 60.9335 39.6871 60.0482 40.486 58.6008L49.7313 41.8519L42.3143 30.1547C40.8484 27.8428 38.1219 26.6573 35.4314 27.1619L34.8987 27.2618Z" fill="url(#paint9_linear_26_50)"/>
<g filter="url(#filter9_f_26_50)">
<path d="M41.4476 34.2536C42.9378 34.7567 43.7889 36.3229 43.4003 37.8471L41.7095 44.4779L43.1125 51.0214C43.4478 52.5853 42.4943 54.1364 40.9474 54.5432C39.3076 54.9745 37.6486 53.9155 37.3494 52.2466L35.9356 44.3612L37.6602 36.4017C38.0291 34.6992 39.7971 33.6964 41.4476 34.2536Z" fill="#BDBDBD"/>
</g>
<g filter="url(#filter10_d_26_50)">
<path fill-rule="evenodd" clip-rule="evenodd" d="M70.6237 24.103C70.1035 24.6386 69.2477 24.651 68.7122 24.1309L60.0825 15.749L51.7005 24.3787C51.1804 24.9142 50.3245 24.9267 49.789 24.4065C49.2535 23.8864 49.2411 23.0305 49.7612 22.495L59.0849 12.8956C59.3347 12.6385 59.6765 12.491 60.0349 12.4858C60.3934 12.4806 60.7393 12.618 60.9964 12.8678L70.5958 22.1915C71.1314 22.7117 71.1439 23.5675 70.6237 24.103Z" fill="white"/>
</g>
<g filter="url(#filter11_d_26_50)">
<path fill-rule="evenodd" clip-rule="evenodd" d="M70.6237 63.9715C70.1035 63.4359 69.2477 63.4235 68.7122 63.9436L60.0825 72.3255L51.7005 63.6958C51.1804 63.1603 50.3245 63.1478 49.789 63.668C49.2535 64.1881 49.2411 65.044 49.7612 65.5795L59.0849 75.1789C59.3347 75.436 59.6765 75.5835 60.0349 75.5887C60.3934 75.5939 60.7393 75.4565 60.9964 75.2067L70.5958 65.883C71.1314 65.3628 71.1439 64.507 70.6237 63.9715Z" fill="white"/>
</g>
<g filter="url(#filter12_d_26_50)">
<path fill-rule="evenodd" clip-rule="evenodd" d="M38.8215 32.8864C39.3494 33.4144 39.3494 34.2703 38.8215 34.7982L30.3148 43.3049L38.8215 51.8116C39.3494 52.3395 39.3494 53.1954 38.8215 53.7233C38.2936 54.2512 37.4377 54.2512 36.9098 53.7233L27.4472 44.2607C27.1937 44.0073 27.0513 43.6634 27.0513 43.3049C27.0513 42.9464 27.1937 42.6025 27.4472 42.349L36.9098 32.8864C37.4377 32.3585 38.2936 32.3585 38.8215 32.8864Z" fill="white"/>
</g>
<g filter="url(#filter13_d_26_50)">
<path fill-rule="evenodd" clip-rule="evenodd" d="M79.5804 54.1215C79.0525 53.5936 79.0525 52.7377 79.5804 52.2098L88.0871 43.7031L79.5804 35.1964C79.0525 34.6685 79.0525 33.8125 79.5804 33.2846C80.1082 32.7568 80.9642 32.7568 81.4921 33.2846L90.9547 42.7472C91.2082 43.0007 91.3506 43.3446 91.3506 43.7031C91.3506 44.0616 91.2082 44.4055 90.9547 44.6589L81.4921 54.1215C80.9642 54.6494 80.1082 54.6494 79.5804 54.1215Z" fill="white"/>
</g>
<g filter="url(#filter14_ddiii_26_50)">
<rect x="46" y="32" width="25.9036" height="25" rx="12.0482" fill="url(#paint10_linear_26_50)"/>
</g>
<g filter="url(#filter15_f_26_50)">
<path d="M55.0901 51.2557C55.2548 52.6424 56.4305 53.6868 57.827 53.6868H59.5087C60.9168 53.6868 62.0984 52.6251 62.2486 51.225C62.4183 49.644 61.1793 48.2651 59.5893 48.2651H57.7465C56.144 48.2651 54.9011 49.6644 55.0901 51.2557Z" fill="#D1D1D1"/>
</g>
<g filter="url(#filter16_d_26_50)">
<path d="M56.7629 42.494C56.7629 42.0442 56.4898 41.8193 55.9436 41.8193C55.6063 41.8193 55.2328 41.8916 54.8231 42.0361C54.4215 42.1727 54.1002 42.3133 53.8593 42.4578L53.5099 42.6627L53.8352 40.9398C54.1484 40.7711 54.5259 40.6225 54.9677 40.494C55.4095 40.3574 55.799 40.2892 56.1364 40.2892C56.8191 40.2892 57.3653 40.4659 57.7749 40.8193C58.1926 41.1647 58.4014 41.6265 58.4014 42.2048C58.4014 42.9839 57.9918 43.7952 57.1725 44.6386L55.0761 46.8072L58.8352 46.5904L58.6304 48.1928L56.1243 48.0843L53.281 48.1687L53.4737 46.9036L56.0039 43.988C56.5099 43.4177 56.7629 42.9197 56.7629 42.494ZM63.3989 48.241L61.9652 46.1084L60.4832 48.241L59.2905 47.5783L61.182 45.1325L59.3869 42.9157L60.7242 42L62.0375 44.0361L63.4591 41.9759L64.6278 42.6988L62.8326 45.0361L64.7363 47.3253L63.3989 48.241Z" fill="white"/>
</g>
<path d="M49.3256 41.2224C49.7618 37.0091 53.3123 33.8072 57.5482 33.8072H59.8415C64.1081 33.8072 67.6736 37.0548 68.0709 41.303C68.511 46.0081 64.8092 50.0723 60.0835 50.0723H57.3064C52.5483 50.0723 48.8355 45.9552 49.3256 41.2224Z" fill="url(#paint11_linear_26_50)"/>
<defs>
<filter id="filter0_dddi_26_50" x="0.5837" y="0" width="117.849" height="131.579" filterUnits="userSpaceOnUse" color-interpolation-filters="sRGB">
<feFlood flood-opacity="0" result="BackgroundImageFix"/>
<feColorMatrix in="SourceAlpha" type="matrix" values="0 0 0 0 0 0 0 0 0 0 0 0 0 0 0 0 0 0 127 0" result="hardAlpha"/>
<feMorphology radius="7.55139" operator="erode" in="SourceAlpha" result="effect1_dropShadow_26_50"/>
<feOffset dy="28.1461"/>
<feGaussianBlur stdDeviation="10.9838"/>
<feColorMatrix type="matrix" values="0 0 0 0 0.239216 0 0 0 0 0.235294 0 0 0 0 0.231373 0 0 0 0.55 0"/>
<feBlend mode="normal" in2="BackgroundImageFix" result="effect1_dropShadow_26_50"/>
<feColorMatrix in="SourceAlpha" type="matrix" values="0 0 0 0 0 0 0 0 0 0 0 0 0 0 0 0 0 0 127 0" result="hardAlpha"/>
<feMorphology radius="13.7298" operator="erode" in="SourceAlpha" result="effect2_dropShadow_26_50"/>
<feOffset dy="17.8488"/>
<feGaussianBlur stdDeviation="3.43245"/>
<feColorMatrix type="matrix" values="0 0 0 0 0.239216 0 0 0 0 0.235294 0 0 0 0 0.231373 0 0 0 0.27 0"/>
<feBlend mode="normal" in2="effect1_dropShadow_26_50" result="effect2_dropShadow_26_50"/>
<feColorMatrix in="SourceAlpha" type="matrix" values="0 0 0 0 0 0 0 0 0 0 0 0 0 0 0 0 0 0 127 0" result="hardAlpha"/>
<feOffset dy="6.59381"/>
<feGaussianBlur stdDeviation="3.2969"/>
<feComposite in2="hardAlpha" operator="out"/>
<feColorMatrix type="matrix" values="0 0 0 0 0 0 0 0 0 0 0 0 0 0 0 0 0 0 0.5 0"/>
<feBlend mode="normal" in2="effect2_dropShadow_26_50" result="effect3_dropShadow_26_50"/>
<feBlend mode="normal" in="SourceGraphic" in2="effect3_dropShadow_26_50" result="shape"/>
<feColorMatrix in="SourceAlpha" type="matrix" values="0 0 0 0 0 0 0 0 0 0 0 0 0 0 0 0 0 0 127 0" result="hardAlpha"/>
<feOffset/>
<feGaussianBlur stdDeviation="13.7298"/>
<feComposite in2="hardAlpha" operator="arithmetic" k2="-1" k3="1"/>
<feColorMatrix type="matrix" values="0 0 0 0 0.239216 0 0 0 0 0.235294 0 0 0 0 0.231373 0 0 0 0.8 0"/>
<feBlend mode="normal" in2="shape" result="effect4_innerShadow_26_50"/>
</filter>
<filter id="filter1_f_26_50" x="20.2951" y="55.5051" width="79.2213" height="35.7768" filterUnits="userSpaceOnUse" color-interpolation-filters="sRGB">
<feFlood flood-opacity="0" result="BackgroundImageFix"/>
<feBlend mode="normal" in="SourceGraphic" in2="BackgroundImageFix" result="shape"/>
<feGaussianBlur stdDeviation="6.8649" result="effect1_foregroundBlur_26_50"/>
</filter>
<filter id="filter2_dddi_26_50" x="33.09" y="53.7434" width="52.9099" height="30.8366" filterUnits="userSpaceOnUse" color-interpolation-filters="sRGB">
<feFlood flood-opacity="0" result="BackgroundImageFix"/>
<feColorMatrix in="SourceAlpha" type="matrix" values="0 0 0 0 0 0 0 0 0 0 0 0 0 0 0 0 0 0 127 0" result="hardAlpha"/>
<feOffset dy="0.796567"/>
<feGaussianBlur stdDeviation="1.81219"/>
<feComposite in2="hardAlpha" operator="out"/>
<feColorMatrix type="matrix" values="0 0 0 0 0.239216 0 0 0 0 0.235294 0 0 0 0 0.231373 0 0 0 0.5 0"/>
<feBlend mode="normal" in2="BackgroundImageFix" result="effect1_dropShadow_26_50"/>
<feColorMatrix in="SourceAlpha" type="matrix" values="0 0 0 0 0 0 0 0 0 0 0 0 0 0 0 0 0 0 127 0" result="hardAlpha"/>
<feOffset dy="0.796567"/>
<feGaussianBlur stdDeviation="1.06541"/>
<feComposite in2="hardAlpha" operator="out"/>
<feColorMatrix type="matrix" values="0 0 0 0 0.239216 0 0 0 0 0.235294 0 0 0 0 0.231373 0 0 0 0.25 0"/>
<feBlend mode="normal" in2="effect1_dropShadow_26_50" result="effect2_dropShadow_26_50"/>
<feColorMatrix in="SourceAlpha" type="matrix" values="0 0 0 0 0 0 0 0 0 0 0 0 0 0 0 0 0 0 127 0" result="hardAlpha"/>
<feOffset dy="0.796567"/>
<feGaussianBlur stdDeviation="0.398284"/>
<feComposite in2="hardAlpha" operator="out"/>
<feColorMatrix type="matrix" values="0 0 0 0 0 0 0 0 0 0 0 0 0 0 0 0 0 0 0.25 0"/>
<feBlend mode="normal" in2="effect2_dropShadow_26_50" result="effect3_dropShadow_26_50"/>
<feBlend mode="normal" in="SourceGraphic" in2="effect3_dropShadow_26_50" result="shape"/>
<feColorMatrix in="SourceAlpha" type="matrix" values="0 0 0 0 0 0 0 0 0 0 0 0 0 0 0 0 0 0 127 0" result="hardAlpha"/>
<feOffset dy="0.796567"/>
<feGaussianBlur stdDeviation="2.41957"/>
<feComposite in2="hardAlpha" operator="arithmetic" k2="-1" k3="1"/>
<feColorMatrix type="matrix" values="0 0 0 0 0 0 0 0 0 0 0 0 0 0 0 0 0 0 1 0"/>
<feBlend mode="normal" in2="shape" result="effect4_innerShadow_26_50"/>
</filter>
<filter id="filter3_f_26_50" x="44.0769" y="55.7298" width="32.3799" height="15.6345" filterUnits="userSpaceOnUse" color-interpolation-filters="sRGB">
<feFlood flood-opacity="0" result="BackgroundImageFix"/>
<feBlend mode="normal" in="SourceGraphic" in2="BackgroundImageFix" result="shape"/>
<feGaussianBlur stdDeviation="2.02722" result="effect1_foregroundBlur_26_50"/>
</filter>
<filter id="filter4_dddi_26_50" x="33.09" y="5.83381" width="52.9099" height="30.8366" filterUnits="userSpaceOnUse" color-interpolation-filters="sRGB">
<feFlood flood-opacity="0" result="BackgroundImageFix"/>
<feColorMatrix in="SourceAlpha" type="matrix" values="0 0 0 0 0 0 0 0 0 0 0 0 0 0 0 0 0 0 127 0" result="hardAlpha"/>
<feOffset dy="0.796567"/>
<feGaussianBlur stdDeviation="1.81219"/>
<feComposite in2="hardAlpha" operator="out"/>
<feColorMatrix type="matrix" values="0 0 0 0 0.239216 0 0 0 0 0.235294 0 0 0 0 0.231373 0 0 0 0.5 0"/>
<feBlend mode="normal" in2="BackgroundImageFix" result="effect1_dropShadow_26_50"/>
<feColorMatrix in="SourceAlpha" type="matrix" values="0 0 0 0 0 0 0 0 0 0 0 0 0 0 0 0 0 0 127 0" result="hardAlpha"/>
<feOffset dy="0.796567"/>
<feGaussianBlur stdDeviation="1.06541"/>
<feComposite in2="hardAlpha" operator="out"/>
<feColorMatrix type="matrix" values="0 0 0 0 0.239216 0 0 0 0 0.235294 0 0 0 0 0.231373 0 0 0 0.25 0"/>
<feBlend mode="normal" in2="effect1_dropShadow_26_50" result="effect2_dropShadow_26_50"/>
<feColorMatrix in="SourceAlpha" type="matrix" values="0 0 0 0 0 0 0 0 0 0 0 0 0 0 0 0 0 0 127 0" result="hardAlpha"/>
<feOffset dy="0.796567"/>
<feGaussianBlur stdDeviation="0.398284"/>
<feComposite in2="hardAlpha" operator="out"/>
<feColorMatrix type="matrix" values="0 0 0 0 0 0 0 0 0 0 0 0 0 0 0 0 0 0 0.25 0"/>
<feBlend mode="normal" in2="effect2_dropShadow_26_50" result="effect3_dropShadow_26_50"/>
<feBlend mode="normal" in="SourceGraphic" in2="effect3_dropShadow_26_50" result="shape"/>
<feColorMatrix in="SourceAlpha" type="matrix" values="0 0 0 0 0 0 0 0 0 0 0 0 0 0 0 0 0 0 127 0" result="hardAlpha"/>
<feOffset dy="0.796567"/>
<feGaussianBlur stdDeviation="2.41957"/>
<feComposite in2="hardAlpha" operator="arithmetic" k2="-1" k3="1"/>
<feColorMatrix type="matrix" values="0 0 0 0 0 0 0 0 0 0 0 0 0 0 0 0 0 0 1 0"/>
<feBlend mode="normal" in2="shape" result="effect4_innerShadow_26_50"/>
</filter>
<filter id="filter5_f_26_50" x="44.0769" y="17.4563" width="32.3799" height="15.6345" filterUnits="userSpaceOnUse" color-interpolation-filters="sRGB">
<feFlood flood-opacity="0" result="BackgroundImageFix"/>
<feBlend mode="normal" in="SourceGraphic" in2="BackgroundImageFix" result="shape"/>
<feGaussianBlur stdDeviation="2.02722" result="effect1_foregroundBlur_26_50"/>
</filter>
<filter id="filter6_dddi_26_50" x="68.3317" y="20.5854" width="30.4138" height="47.5317" filterUnits="userSpaceOnUse" color-interpolation-filters="sRGB">
<feFlood flood-opacity="0" result="BackgroundImageFix"/>
<feColorMatrix in="SourceAlpha" type="matrix" values="0 0 0 0 0 0 0 0 0 0 0 0 0 0 0 0 0 0 127 0" result="hardAlpha"/>
<feOffset dy="0.796567"/>
<feGaussianBlur stdDeviation="1.81219"/>
<feComposite in2="hardAlpha" operator="out"/>
<feColorMatrix type="matrix" values="0 0 0 0 0.239216 0 0 0 0 0.235294 0 0 0 0 0.231373 0 0 0 0.5 0"/>
<feBlend mode="normal" in2="BackgroundImageFix" result="effect1_dropShadow_26_50"/>
<feColorMatrix in="SourceAlpha" type="matrix" values="0 0 0 0 0 0 0 0 0 0 0 0 0 0 0 0 0 0 127 0" result="hardAlpha"/>
<feOffset dy="0.796567"/>
<feGaussianBlur stdDeviation="1.06541"/>
<feComposite in2="hardAlpha" operator="out"/>
<feColorMatrix type="matrix" values="0 0 0 0 0.239216 0 0 0 0 0.235294 0 0 0 0 0.231373 0 0 0 0.25 0"/>
<feBlend mode="normal" in2="effect1_dropShadow_26_50" result="effect2_dropShadow_26_50"/>
<feColorMatrix in="SourceAlpha" type="matrix" values="0 0 0 0 0 0 0 0 0 0 0 0 0 0 0 0 0 0 127 0" result="hardAlpha"/>
<feOffset dy="0.796567"/>
<feGaussianBlur stdDeviation="0.398284"/>
<feComposite in2="hardAlpha" operator="out"/>
<feColorMatrix type="matrix" values="0 0 0 0 0 0 0 0 0 0 0 0 0 0 0 0 0 0 0.25 0"/>
<feBlend mode="normal" in2="effect2_dropShadow_26_50" result="effect3_dropShadow_26_50"/>
<feBlend mode="normal" in="SourceGraphic" in2="effect3_dropShadow_26_50" result="shape"/>
<feColorMatrix in="SourceAlpha" type="matrix" values="0 0 0 0 0 0 0 0 0 0 0 0 0 0 0 0 0 0 127 0" result="hardAlpha"/>
<feOffset dy="0.796567"/>
<feGaussianBlur stdDeviation="2.5291"/>
<feComposite in2="hardAlpha" operator="arithmetic" k2="-1" k3="1"/>
<feColorMatrix type="matrix" values="0 0 0 0 0 0 0 0 0 0 0 0 0 0 0 0 0 0 1 0"/>
<feBlend mode="normal" in2="shape" result="effect4_innerShadow_26_50"/>
</filter>
<filter id="filter7_f_26_50" x="70.6697" y="30.044" width="15.6675" height="28.6495" filterUnits="userSpaceOnUse" color-interpolation-filters="sRGB">
<feFlood flood-opacity="0" result="BackgroundImageFix"/>
<feBlend mode="normal" in="SourceGraphic" in2="BackgroundImageFix" result="shape"/>
<feGaussianBlur stdDeviation="2.02722" result="effect1_foregroundBlur_26_50"/>
</filter>
<filter id="filter8_dddi_26_50" x="19.4733" y="20.586" width="30.4138" height="47.5317" filterUnits="userSpaceOnUse" color-interpolation-filters="sRGB">
<feFlood flood-opacity="0" result="BackgroundImageFix"/>
<feColorMatrix in="SourceAlpha" type="matrix" values="0 0 0 0 0 0 0 0 0 0 0 0 0 0 0 0 0 0 127 0" result="hardAlpha"/>
<feOffset dy="0.796567"/>
<feGaussianBlur stdDeviation="1.81219"/>
<feComposite in2="hardAlpha" operator="out"/>
<feColorMatrix type="matrix" values="0 0 0 0 0.239216 0 0 0 0 0.235294 0 0 0 0 0.231373 0 0 0 0.5 0"/>
<feBlend mode="normal" in2="BackgroundImageFix" result="effect1_dropShadow_26_50"/>
<feColorMatrix in="SourceAlpha" type="matrix" values="0 0 0 0 0 0 0 0 0 0 0 0 0 0 0 0 0 0 127 0" result="hardAlpha"/>
<feOffset dy="0.796567"/>
<feGaussianBlur stdDeviation="1.06541"/>
<feComposite in2="hardAlpha" operator="out"/>
<feColorMatrix type="matrix" values="0 0 0 0 0.239216 0 0 0 0 0.235294 0 0 0 0 0.231373 0 0 0 0.25 0"/>
<feBlend mode="normal" in2="effect1_dropShadow_26_50" result="effect2_dropShadow_26_50"/>
<feColorMatrix in="SourceAlpha" type="matrix" values="0 0 0 0 0 0 0 0 0 0 0 0 0 0 0 0 0 0 127 0" result="hardAlpha"/>
<feOffset dy="0.796567"/>
<feGaussianBlur stdDeviation="0.398284"/>
<feComposite in2="hardAlpha" operator="out"/>
<feColorMatrix type="matrix" values="0 0 0 0 0 0 0 0 0 0 0 0 0 0 0 0 0 0 0.25 0"/>
<feBlend mode="normal" in2="effect2_dropShadow_26_50" result="effect3_dropShadow_26_50"/>
<feBlend mode="normal" in="SourceGraphic" in2="effect3_dropShadow_26_50" result="shape"/>
<feColorMatrix in="SourceAlpha" type="matrix" values="0 0 0 0 0 0 0 0 0 0 0 0 0 0 0 0 0 0 127 0" result="hardAlpha"/>
<feOffset dy="0.796567"/>
<feGaussianBlur stdDeviation="2.5291"/>
<feComposite in2="hardAlpha" operator="arithmetic" k2="-1" k3="1"/>
<feColorMatrix type="matrix" values="0 0 0 0 0 0 0 0 0 0 0 0 0 0 0 0 0 0 1 0"/>
<feBlend mode="normal" in2="shape" result="effect4_innerShadow_26_50"/>
</filter>
<filter id="filter9_f_26_50" x="31.8811" y="30.0446" width="15.6675" height="28.6495" filterUnits="userSpaceOnUse" color-interpolation-filters="sRGB">
<feFlood flood-opacity="0" result="BackgroundImageFix"/>
<feBlend mode="normal" in="SourceGraphic" in2="BackgroundImageFix" result="shape"/>
<feGaussianBlur stdDeviation="2.02722" result="effect1_foregroundBlur_26_50"/>
</filter>
<filter id="filter10_d_26_50" x="48.5823" y="12.4857" width="23.2201" height="13.8961" filterUnits="userSpaceOnUse" color-interpolation-filters="sRGB">
<feFlood flood-opacity="0" result="BackgroundImageFix"/>
<feColorMatrix in="SourceAlpha" type="matrix" values="0 0 0 0 0 0 0 0 0 0 0 0 0 0 0 0 0 0 127 0" result="hardAlpha"/>
<feOffset dy="0.796567"/>
<feGaussianBlur stdDeviation="0.398284"/>
<feComposite in2="hardAlpha" operator="out"/>
<feColorMatrix type="matrix" values="0 0 0 0 0 0 0 0 0 0 0 0 0 0 0 0 0 0 0.25 0"/>
<feBlend mode="normal" in2="BackgroundImageFix" result="effect1_dropShadow_26_50"/>
<feBlend mode="normal" in="SourceGraphic" in2="effect1_dropShadow_26_50" result="shape"/>
</filter>
<filter id="filter11_d_26_50" x="48.5823" y="63.2859" width="23.2201" height="13.8961" filterUnits="userSpaceOnUse" color-interpolation-filters="sRGB">
<feFlood flood-opacity="0" result="BackgroundImageFix"/>
<feColorMatrix in="SourceAlpha" type="matrix" values="0 0 0 0 0 0 0 0 0 0 0 0 0 0 0 0 0 0 127 0" result="hardAlpha"/>
<feOffset dy="0.796567"/>
<feGaussianBlur stdDeviation="0.398284"/>
<feComposite in2="hardAlpha" operator="out"/>
<feColorMatrix type="matrix" values="0 0 0 0 0 0 0 0 0 0 0 0 0 0 0 0 0 0 0.25 0"/>
<feBlend mode="normal" in2="BackgroundImageFix" result="effect1_dropShadow_26_50"/>
<feBlend mode="normal" in="SourceGraphic" in2="effect1_dropShadow_26_50" result="shape"/>
</filter>
<filter id="filter12_d_26_50" x="26.2547" y="32.4905" width="13.7592" height="23.2218" filterUnits="userSpaceOnUse" color-interpolation-filters="sRGB">
<feFlood flood-opacity="0" result="BackgroundImageFix"/>
<feColorMatrix in="SourceAlpha" type="matrix" values="0 0 0 0 0 0 0 0 0 0 0 0 0 0 0 0 0 0 127 0" result="hardAlpha"/>
<feOffset dy="0.796567"/>
<feGaussianBlur stdDeviation="0.398284"/>
<feComposite in2="hardAlpha" operator="out"/>
<feColorMatrix type="matrix" values="0 0 0 0 0 0 0 0 0 0 0 0 0 0 0 0 0 0 0.25 0"/>
<feBlend mode="normal" in2="BackgroundImageFix" result="effect1_dropShadow_26_50"/>
<feBlend mode="normal" in="SourceGraphic" in2="effect1_dropShadow_26_50" result="shape"/>
</filter>
<filter id="filter13_d_26_50" x="78.388" y="32.8887" width="13.7592" height="23.2218" filterUnits="userSpaceOnUse" color-interpolation-filters="sRGB">
<feFlood flood-opacity="0" result="BackgroundImageFix"/>
<feColorMatrix in="SourceAlpha" type="matrix" values="0 0 0 0 0 0 0 0 0 0 0 0 0 0 0 0 0 0 127 0" result="hardAlpha"/>
<feOffset dy="0.796567"/>
<feGaussianBlur stdDeviation="0.398284"/>
<feComposite in2="hardAlpha" operator="out"/>
<feColorMatrix type="matrix" values="0 0 0 0 0 0 0 0 0 0 0 0 0 0 0 0 0 0 0.25 0"/>
<feBlend mode="normal" in2="BackgroundImageFix" result="effect1_dropShadow_26_50"/>
<feBlend mode="normal" in="SourceGraphic" in2="effect1_dropShadow_26_50" result="shape"/>
</filter>
<filter id="filter14_ddiii_26_50" x="39.6747" y="28" width="38.5544" height="47.6747" filterUnits="userSpaceOnUse" color-interpolation-filters="sRGB">
<feFlood flood-opacity="0" result="BackgroundImageFix"/>
<feColorMatrix in="SourceAlpha" type="matrix" values="0 0 0 0 0 0 0 0 0 0 0 0 0 0 0 0 0 0 127 0" result="hardAlpha"/>
<feMorphology radius="3.31325" operator="erode" in="SourceAlpha" result="effect1_dropShadow_26_50"/>
<feOffset dy="12.3494"/>
<feGaussianBlur stdDeviation="4.81928"/>
<feColorMatrix type="matrix" values="0 0 0 0 0.239216 0 0 0 0 0.235294 0 0 0 0 0.231373 0 0 0 0.55 0"/>
<feBlend mode="normal" in2="BackgroundImageFix" result="effect1_dropShadow_26_50"/>
<feColorMatrix in="SourceAlpha" type="matrix" values="0 0 0 0 0 0 0 0 0 0 0 0 0 0 0 0 0 0 127 0" result="hardAlpha"/>
<feMorphology radius="6.0241" operator="erode" in="SourceAlpha" result="effect2_dropShadow_26_50"/>
<feOffset dy="7.83133"/>
<feGaussianBlur stdDeviation="1.50602"/>
<feColorMatrix type="matrix" values="0 0 0 0 0.239216 0 0 0 0 0.235294 0 0 0 0 0.231373 0 0 0 0.27 0"/>
<feBlend mode="normal" in2="effect1_dropShadow_26_50" result="effect2_dropShadow_26_50"/>
<feBlend mode="normal" in="SourceGraphic" in2="effect2_dropShadow_26_50" result="shape"/>
<feColorMatrix in="SourceAlpha" type="matrix" values="0 0 0 0 0 0 0 0 0 0 0 0 0 0 0 0 0 0 127 0" result="hardAlpha"/>
<feOffset/>
<feGaussianBlur stdDeviation="6.0241"/>
<feComposite in2="hardAlpha" operator="arithmetic" k2="-1" k3="1"/>
<feColorMatrix type="matrix" values="0 0 0 0 0.239216 0 0 0 0 0.235294 0 0 0 0 0.231373 0 0 0 0.8 0"/>
<feBlend mode="normal" in2="shape" result="effect3_innerShadow_26_50"/>
<feColorMatrix in="SourceAlpha" type="matrix" values="0 0 0 0 0 0 0 0 0 0 0 0 0 0 0 0 0 0 127 0" result="hardAlpha"/>
<feOffset dy="1.20482"/>
<feGaussianBlur stdDeviation="0.60241"/>
<feComposite in2="hardAlpha" operator="arithmetic" k2="-1" k3="1"/>
<feColorMatrix type="matrix" values="0 0 0 0 0 0 0 0 0 0 0 0 0 0 0 0 0 0 0.25 0"/>
<feBlend mode="normal" in2="effect3_innerShadow_26_50" result="effect4_innerShadow_26_50"/>
<feColorMatrix in="SourceAlpha" type="matrix" values="0 0 0 0 0 0 0 0 0 0 0 0 0 0 0 0 0 0 127 0" result="hardAlpha"/>
<feOffset dy="-4"/>
<feGaussianBlur stdDeviation="2"/>
<feComposite in2="hardAlpha" operator="arithmetic" k2="-1" k3="1"/>
<feColorMatrix type="matrix" values="0 0 0 0 0 0 0 0 0 0 0 0 0 0 0 0 0 0 0.25 0"/>
<feBlend mode="normal" in2="effect4_innerShadow_26_50" result="effect5_innerShadow_26_50"/>
</filter>
<filter id="filter15_f_26_50" x="49.0467" y="42.241" width="19.2416" height="17.4699" filterUnits="userSpaceOnUse" color-interpolation-filters="sRGB">
<feFlood flood-opacity="0" result="BackgroundImageFix"/>
<feBlend mode="normal" in="SourceGraphic" in2="BackgroundImageFix" result="shape"/>
<feGaussianBlur stdDeviation="3.01205" result="effect1_foregroundBlur_26_50"/>
</filter>
<filter id="filter16_d_26_50" x="52.0759" y="39.3855" width="13.8652" height="10.3615" filterUnits="userSpaceOnUse" color-interpolation-filters="sRGB">
<feFlood flood-opacity="0" result="BackgroundImageFix"/>
<feColorMatrix in="SourceAlpha" type="matrix" values="0 0 0 0 0 0 0 0 0 0 0 0 0 0 0 0 0 0 127 0" result="hardAlpha"/>
<feOffset dy="0.301205"/>
<feGaussianBlur stdDeviation="0.60241"/>
<feColorMatrix type="matrix" values="0 0 0 0 0.239216 0 0 0 0 0.235294 0 0 0 0 0.231373 0 0 0 0.8 0"/>
<feBlend mode="normal" in2="BackgroundImageFix" result="effect1_dropShadow_26_50"/>
<feBlend mode="normal" in="SourceGraphic" in2="effect1_dropShadow_26_50" result="shape"/>
</filter>
<linearGradient id="paint0_linear_26_50" x1="59.5082" y1="0" x2="59.5082" y2="89.0164" gradientUnits="userSpaceOnUse">
<stop stop-color="#3D3C3B"/>
<stop offset="1" stop-color="#A09F9C"/>
</linearGradient>
<linearGradient id="paint1_linear_26_50" x1="59.9311" y1="6.17339" x2="59.9311" y2="83.6396" gradientUnits="userSpaceOnUse">
<stop stop-color="white"/>
<stop offset="1" stop-color="white" stop-opacity="0"/>
</linearGradient>
<linearGradient id="paint2_linear_26_50" x1="59.4824" y1="80.159" x2="59.4824" y2="55.462" gradientUnits="userSpaceOnUse">
<stop stop-color="#3D3C3B"/>
<stop offset="1" stop-color="#A4A3A2"/>
</linearGradient>
<linearGradient id="paint3_linear_26_50" x1="60.9396" y1="79.2578" x2="60.9396" y2="68.1059" gradientUnits="userSpaceOnUse">
<stop stop-color="white"/>
<stop offset="1" stop-color="white" stop-opacity="0"/>
</linearGradient>
<linearGradient id="paint4_linear_26_50" x1="59.4824" y1="8.66162" x2="59.4824" y2="33.3587" gradientUnits="userSpaceOnUse">
<stop stop-color="#3D3C3B"/>
<stop offset="1" stop-color="#4D4B49"/>
</linearGradient>
<linearGradient id="paint5_linear_26_50" x1="60.9396" y1="9.56282" x2="60.9396" y2="20.7148" gradientUnits="userSpaceOnUse">
<stop stop-color="white"/>
<stop offset="1" stop-color="white" stop-opacity="0"/>
</linearGradient>
<linearGradient id="paint6_linear_26_50" x1="95.1119" y1="43.2846" x2="70.4199" y2="43.7837" gradientUnits="userSpaceOnUse">
<stop stop-color="#3D3C3B"/>
<stop offset="1" stop-color="#A4A3A2"/>
</linearGradient>
<linearGradient id="paint7_linear_26_50" x1="94.2366" y1="44.5823" x2="83.0869" y2="44.8076" gradientUnits="userSpaceOnUse">
<stop stop-color="white"/>
<stop offset="1" stop-color="white" stop-opacity="0"/>
</linearGradient>
<linearGradient id="paint8_linear_26_50" x1="23.1068" y1="43.2852" x2="47.7988" y2="43.7843" gradientUnits="userSpaceOnUse">
<stop stop-color="#3D3C3B"/>
<stop offset="1" stop-color="#A4A3A2"/>
</linearGradient>
<linearGradient id="paint9_linear_26_50" x1="23.9821" y1="44.5829" x2="35.1318" y2="44.8082" gradientUnits="userSpaceOnUse">
<stop stop-color="white"/>
<stop offset="1" stop-color="white" stop-opacity="0"/>
</linearGradient>
<linearGradient id="paint10_linear_26_50" x1="58.9518" y1="32" x2="58.9518" y2="57" gradientUnits="userSpaceOnUse">
<stop stop-color="#3D3C3B"/>
<stop offset="1" stop-color="#999999"/>
</linearGradient>
<linearGradient id="paint11_linear_26_50" x1="58.7316" y1="33.8072" x2="58.7316" y2="50.0723" gradientUnits="userSpaceOnUse">
<stop stop-color="white"/>
<stop offset="1" stop-color="white" stop-opacity="0"/>
</linearGradient>
<clipPath id="clip0_26_50">
<rect x="15" width="89.0164" height="89.0164" rx="44.5082" fill="white"/>
</clipPath>
</defs>
</svg>
